<?xml version="1.0" standalone="no"?>
<!DOCTYPE svg PUBLIC "-//W3C//DTD SVG 20010904//EN"
 "http://www.w3.org/TR/2001/REC-SVG-20010904/DTD/svg10.dtd">
<svg version="1.0" xmlns="http://www.w3.org/2000/svg"
 width="270.000000pt" height="81.000000pt" viewBox="0 0 270.000000 81.000000"
 preserveAspectRatio="xMidYMid meet">

<g transform="translate(0.000000,81.000000) scale(0.100000,-0.100000)"
fill="#000000" stroke="none">
<path d="M652 716 l-37 -34 -3 -211 c-2 -143 0 -211 7 -211 7 0 11 66 11 199
0 188 1 200 22 226 12 15 35 36 52 46 28 17 29 19 8 19 -12 0 -39 -15 -60 -34z
m18 0 c0 -2 -8 -10 -17 -17 -16 -13 -17 -12 -4 4 13 16 21 21 21 13z"/>
<path d="M90 735 c0 -2 14 -12 30 -20 63 -33 70 -58 70 -272 0 -106 3 -193 8
-193 4 0 6 93 4 206 -3 225 -7 240 -63 270 -28 14 -49 18 -49 9z"/>
<path d="M310 628 c-18 -13 -40 -34 -48 -48 -10 -18 -6 -16 16 8 26 29 38 34
91 39 55 5 64 3 88 -18 55 -52 87 -129 53 -129 -5 0 -23 -20 -41 -45 -20 -27
-35 -41 -39 -34 -5 7 -22 -4 -48 -30 l-40 -41 52 0 c61 0 107 25 143 79 25 37
30 63 11 56 -9 -4 -12 6 -11 32 2 51 2 50 13 33 9 -13 10 -13 10 0 0 26 -39
79 -72 100 -47 29 -134 27 -178 -2z m230 -73 c0 -8 -4 -15 -10 -15 -5 0 -10 7
-10 15 0 8 5 15 10 15 6 0 10 -7 10 -15z"/>
<path d="M419 551 c37 -38 50 -46 64 -38 18 8 18 10 1 28 -19 21 -39 26 -29 7
4 -7 -2 -3 -12 9 -10 12 -30 26 -44 32 -23 8 -20 3 20 -38z"/>
<path d="M276 554 c-11 -29 -6 -115 9 -144 8 -16 24 -31 35 -35 11 -3 20 -11
20 -16 0 -5 4 -9 8 -9 5 0 7 13 4 29 -3 20 2 35 15 48 19 18 19 19 -6 58 -29
47 -61 85 -72 85 -4 0 -10 -7 -13 -16z"/>
<path d="M232 490 c0 -19 2 -27 5 -17 2 9 2 25 0 35 -3 9 -5 1 -5 -18z"/>
<path d="M561 494 c0 -11 3 -14 6 -6 3 7 2 16 -1 19 -3 4 -6 -2 -5 -13z"/>
<path d="M240 432 c0 -7 15 -27 33 -45 17 -18 22 -21 11 -7 -12 14 -26 34 -32
45 -6 11 -12 14 -12 7z"/>
<path d="M251 230 c-47 -22 -111 -26 -141 -10 -28 15 -35 -6 -8 -24 31 -22 90
-20 142 4 70 32 113 34 203 11 83 -21 162 -26 198 -12 13 5 -7 9 -55 9 -47 0
-99 9 -139 21 -80 26 -143 26 -200 1z"/>
<path d="M260 161 c-25 -11 -54 -22 -64 -25 -10 -4 -17 -9 -14 -12 3 -2 25 3
49 11 104 39 119 40 230 11 57 -14 123 -26 147 -26 39 0 112 22 112 34 0 2
-42 2 -93 -1 -69 -4 -107 -2 -149 11 -74 21 -162 20 -218 -3z"/>
<path d="M270 110 c-50 -21 -121 -26 -151 -10 -15 9 -19 7 -19 -5 0 -22 63
-47 98 -39 15 4 45 16 66 26 49 25 129 26 212 4 63 -16 155 -20 186 -8 10 4
-17 8 -60 9 -45 1 -106 10 -147 22 -85 26 -126 26 -185 1z"/>
</g>
</svg>
