<?xml version="1.0" standalone="no"?>
<!DOCTYPE svg PUBLIC "-//W3C//DTD SVG 20010904//EN"
 "http://www.w3.org/TR/2001/REC-SVG-20010904/DTD/svg10.dtd">
<svg version="1.0" xmlns="http://www.w3.org/2000/svg"
 width="227.000000pt" height="83.000000pt" viewBox="0 0 227.000000 83.000000"
 preserveAspectRatio="xMidYMid meet">

<g transform="translate(0.000000,83.000000) scale(0.100000,-0.100000)"
fill="#000000" stroke="none">
<path d="M14 657 c-3 -8 -3 -47 -1 -88 l3 -74 2 77 c2 80 9 94 42 83 16 -5 20
-15 20 -46 l0 -39 51 0 51 0 -4 40 c-3 38 -2 40 24 40 26 0 28 -3 28 -40 0
-27 4 -40 14 -40 7 0 28 -3 46 -6 l32 -7 -3 47 c-2 25 -2 46 1 46 3 0 15 3 27
6 19 5 22 1 26 -28 l4 -33 1 38 c2 39 -6 44 -56 31 -21 -6 -23 -11 -17 -45 l7
-39 -36 0 c-35 0 -36 1 -36 39 0 36 -3 40 -30 46 -43 9 -52 -1 -45 -47 l7 -39
-39 3 c-37 3 -38 4 -41 46 -3 41 -4 42 -38 42 -20 0 -37 -6 -40 -13z"/>
<path d="M900 589 c0 -18 2 -19 15 -9 15 12 12 30 -6 30 -5 0 -9 -10 -9 -21z"/>
<path d="M1025 526 l7 -68 -51 51 c-28 28 -53 51 -56 51 -16 0 2 -26 50 -72
30 -28 55 -57 55 -64 0 -7 -12 -22 -26 -33 -17 -13 -21 -21 -12 -21 8 0 25 11
37 24 22 23 23 30 17 98 -4 41 -12 81 -17 88 -7 10 -8 -7 -4 -54z"/>
<path d="M1816 581 c-4 -5 -3 -11 1 -13 14 -7 33 -3 34 7 0 14 -28 19 -35 6z"/>
<path d="M874 563 c3 -10 8 -44 11 -75 7 -57 7 -57 -26 -78 -45 -27 -63 -22
-70 20 l-6 35 -2 -42 c-1 -47 18 -61 61 -44 49 18 59 38 57 110 -1 36 -4 72
-7 79 -7 19 -24 14 -18 -5z"/>
<path d="M1071 568 c0 -7 6 -44 14 -83 l14 -70 -4 80 c-2 44 -4 81 -5 83 -1 9
-20 -1 -19 -10z"/>
<path d="M1637 533 c11 -73 9 -96 -6 -101 -8 -3 -12 1 -9 9 3 9 -9 18 -36 26
-50 15 -86 16 -86 3 0 -5 9 -10 20 -10 31 0 24 -18 -10 -25 -18 -4 -36 -2 -44
5 -11 8 -16 8 -20 -2 -5 -11 -7 -11 -12 0 -5 10 -9 10 -22 0 -11 -10 -16 -10
-19 -1 -3 9 -10 9 -29 1 -20 -9 -30 -9 -46 1 -20 12 -21 11 -15 -18 6 -28 3
-34 -26 -51 -17 -11 -43 -19 -57 -18 -20 2 -26 10 -31 38 l-6 35 -2 -42 c-1
-37 2 -43 23 -49 14 -3 35 -3 48 1 29 9 68 44 68 62 0 14 5 15 120 17 41 1 92
8 112 16 34 12 39 12 57 -4 37 -34 53 -14 50 61 -3 75 -7 93 -20 93 -5 0 -6
-21 -2 -47z"/>
<path d="M1685 558 c3 -13 9 -52 15 -87 5 -35 12 -66 16 -70 6 -5 -4 107 -15
172 0 4 -6 7 -11 7 -6 0 -8 -10 -5 -22z"/>
<path d="M2084 548 c3 -18 8 -55 11 -81 8 -58 21 -65 78 -43 24 9 52 16 64 16
12 0 24 4 27 8 8 13 -99 36 -115 26 -10 -6 -6 -10 16 -15 l30 -6 -29 -12 c-45
-18 -54 -9 -61 63 -4 37 -12 69 -17 72 -5 4 -7 -8 -4 -28z"/>
<path d="M1830 512 c0 -10 -5 -23 -11 -29 -9 -9 -6 -10 11 -6 17 4 21 2 18 -8
-3 -8 -15 -14 -27 -13 -11 0 -21 -5 -21 -13 0 -15 26 -18 35 -3 4 6 14 1 24
-12 17 -20 22 -21 57 -10 25 7 42 8 48 2 13 -13 53 -13 61 0 4 6 15 8 26 5 15
-5 19 -1 19 19 0 31 -24 35 -42 6 -7 -11 -21 -20 -31 -20 -14 0 -16 5 -11 25
6 24 4 25 -35 25 -30 0 -41 -4 -41 -15 0 -8 6 -15 13 -16 6 0 2 -5 -10 -11
-33 -16 -56 6 -51 49 3 21 -1 34 -10 38 -20 8 -22 7 -22 -13z m140 -52 c0 -13
-20 -13 -40 0 -12 8 -9 10 13 10 15 0 27 -4 27 -10z m90 -10 c0 -5 -4 -10 -10
-10 -5 0 -10 5 -10 10 0 6 5 10 10 10 6 0 10 -4 10 -10z"/>
<path d="M384 430 c0 -52 1 -74 3 -47 2 26 2 68 0 95 -2 26 -3 4 -3 -48z"/>
<path d="M255 471 c-72 -45 -136 -147 -149 -237 l-6 -39 14 41 c32 95 83 174
135 210 26 18 38 21 48 12 21 -17 25 -3 5 15 -16 15 -20 15 -47 -2z"/>
<path d="M1226 462 c-3 -6 -1 -14 5 -17 15 -10 25 3 12 16 -7 7 -13 7 -17 1z"/>
<path d="M955 445 c20 -16 20 -16 -4 -9 -16 4 -21 3 -17 -5 4 -6 14 -11 22
-11 28 0 8 -25 -46 -57 -30 -18 -46 -33 -37 -33 24 0 68 23 90 48 24 27 19 76
-8 80 l-20 4 20 -17z"/>
<path d="M2212 401 c4 -13 18 -16 19 -4 0 4 -5 9 -11 12 -7 2 -11 -2 -8 -8z"/>
<path d="M585 290 c-3 -6 1 -7 9 -4 18 7 21 14 7 14 -6 0 -13 -4 -16 -10z"/>
<path d="M308 147 c-137 -72 -246 -133 -243 -136 9 -8 413 203 490 255 51 36
-20 2 -247 -119z"/>
<path d="M868 235 c2 -19 7 -35 11 -35 4 0 5 16 3 35 -2 19 -7 35 -11 35 -4 0
-5 -16 -3 -35z"/>
<path d="M919 238 c-3 -22 -1 -34 4 -29 5 5 7 21 5 37 -3 27 -4 26 -9 -8z"/>
<path d="M951 233 c1 -24 3 -29 6 -15 5 27 11 28 40 0 l23 -21 -1 39 c-1 30
-2 34 -8 16 l-6 -24 -19 21 c-27 30 -36 26 -35 -16z"/>
<path d="M1050 235 c0 -19 4 -35 8 -35 4 0 6 16 4 35 -2 19 -6 35 -8 35 -2 0
-4 -16 -4 -35z"/>
<path d="M1090 258 c1 -7 7 -24 14 -37 l14 -25 17 33 c9 18 14 35 12 38 -3 2
-8 -5 -12 -16 -7 -24 -25 -28 -25 -7 0 8 -4 18 -10 21 -5 3 -10 0 -10 -7z"/>
<path d="M1170 235 c0 -19 3 -35 8 -35 4 0 7 16 8 35 0 19 -3 35 -8 35 -4 0
-8 -16 -8 -35z"/>
<path d="M1230 235 c0 -19 5 -35 10 -35 6 0 10 16 10 35 0 19 -4 35 -10 35 -5
0 -10 -16 -10 -35z"/>
<path d="M1266 243 c2 -41 3 -43 15 -43 8 0 8 4 1 13 -6 7 -9 23 -5 35 3 12 1
22 -4 22 -5 0 -8 -12 -7 -27z"/>
<path d="M1307 262 c-3 -4 3 -21 14 -38 16 -24 19 -26 19 -9 -1 24 -26 60 -33
47z"/>
<path d="M1373 235 c0 -22 2 -30 4 -17 2 12 2 30 0 40 -3 9 -5 -1 -4 -23z"/>
<path d="M1428 235 c2 -19 6 -35 8 -35 2 0 4 16 4 35 0 19 -4 35 -8 35 -4 0
-6 -16 -4 -35z"/>
<path d="M1488 235 c-2 -19 0 -35 4 -35 4 0 8 16 8 35 0 19 -2 35 -4 35 -2 0
-6 -16 -8 -35z"/>
<path d="M1600 235 c0 -19 5 -35 10 -35 6 0 10 16 10 35 0 19 -4 35 -10 35 -5
0 -10 -16 -10 -35z"/>
<path d="M1656 255 c-3 -8 -1 -25 4 -37 8 -20 9 -18 9 15 1 39 -3 47 -13 22z"/>
<path d="M1713 250 c3 -11 2 -18 -3 -15 -4 3 -11 -2 -14 -11 -9 -23 -7 -31 4
-14 8 13 13 13 31 2 20 -13 21 -12 14 5 -4 10 -10 26 -12 36 -7 24 -27 22 -20
-3z"/>
<path d="M1770 258 c0 -9 7 -21 15 -28 8 -7 12 -17 8 -24 -4 -7 -2 -7 7 1 10
9 8 17 -9 39 -13 17 -21 21 -21 12z"/>
<path d="M1830 251 c0 -11 5 -21 10 -21 6 0 10 -8 10 -17 0 -13 3 -14 11 -6 9
9 6 19 -10 39 -20 25 -21 25 -21 5z"/>
<path d="M1891 238 c-6 -17 -9 -34 -6 -36 3 -3 5 0 5 6 0 7 7 12 15 12 8 0 15
-4 15 -10 0 -5 4 -10 9 -10 11 0 -6 57 -19 65 -4 3 -13 -9 -19 -27z"/>
<path d="M1961 234 c1 -25 3 -30 6 -16 l5 24 24 -23 c13 -12 24 -18 24 -13 0
6 -13 23 -30 39 l-30 29 1 -40z"/>
<path d="M2100 235 c0 -19 5 -35 10 -35 6 0 10 16 10 35 0 19 -4 35 -10 35 -5
0 -10 -16 -10 -35z"/>
<path d="M2185 250 c3 -5 11 -10 16 -10 6 0 7 5 4 10 -3 6 -11 10 -16 10 -6 0
-7 -4 -4 -10z"/>
<path d="M92 170 c0 -14 2 -19 5 -12 2 6 2 18 0 25 -3 6 -5 1 -5 -13z"/>
</g>
</svg>
