<?xml version="1.0" standalone="no"?>
<!DOCTYPE svg PUBLIC "-//W3C//DTD SVG 20010904//EN"
 "http://www.w3.org/TR/2001/REC-SVG-20010904/DTD/svg10.dtd">
<svg version="1.0" xmlns="http://www.w3.org/2000/svg"
 width="339.000000pt" height="150.000000pt" viewBox="0 0 339.000000 150.000000"
 preserveAspectRatio="xMidYMid meet">

<g transform="translate(0.000000,150.000000) scale(0.100000,-0.100000)"
fill="#000000" stroke="none">
<path d="M150 1450 c0 -16 -7 -20 -33 -20 -18 0 -38 -5 -45 -12 -19 -19 -14
-70 13 -117 30 -52 30 -51 7 -51 -11 0 -26 -8 -35 -18 -37 -41 -12 -102 65
-157 l53 -38 -45 -11 c-38 -9 -45 -15 -48 -37 -4 -34 33 -79 92 -110 47 -24
54 -33 36 -44 -43 -26 41 -109 163 -160 59 -24 43 -8 -25 26 -71 35 -128 75
-128 90 0 5 20 9 45 9 32 0 45 4 45 14 0 19 -15 29 -83 56 -63 25 -132 81
-125 102 3 8 27 15 59 18 75 7 77 29 7 74 -80 51 -112 89 -104 121 7 26 8 27
61 20 35 -4 55 -3 55 4 0 5 -22 36 -50 67 -48 55 -59 84 -41 112 6 11 15 10
45 -4 50 -24 64 -10 46 46 -14 43 -30 53 -30 20z"/>
<path d="M1830 976 c0 -9 7 -16 16 -16 9 0 14 5 12 12 -6 18 -28 21 -28 4z"/>
<path d="M2627 983 c-12 -11 -8 -23 8 -23 8 0 15 7 15 15 0 16 -12 20 -23 8z"/>
<path d="M2923 978 c-18 -24 -24 -38 -16 -38 10 0 36 40 30 46 -2 3 -9 -1 -14
-8z"/>
<path d="M1338 958 c7 -7 12 -42 12 -85 0 -65 3 -77 25 -98 29 -30 83 -33 115
-7 19 15 24 33 30 93 4 41 10 82 14 92 7 14 3 17 -23 17 -30 0 -41 -13 -21
-25 17 -11 12 -151 -6 -169 -18 -18 -47 -20 -75 -6 -16 9 -19 22 -19 93 0 51
5 88 12 95 9 9 2 12 -32 12 -34 0 -41 -3 -32 -12z"/>
<path d="M2740 925 c0 -14 -5 -25 -12 -25 -9 0 -9 -3 0 -12 7 -7 12 -39 12
-75 0 -55 2 -63 19 -63 10 0 24 7 31 15 11 13 10 14 -4 9 -14 -5 -16 2 -16 50
0 43 3 56 15 56 8 0 15 5 15 10 0 6 -7 10 -15 10 -9 0 -15 9 -15 25 0 16 -6
25 -15 25 -9 0 -15 -9 -15 -25z"/>
<path d="M1600 900 c-12 -8 -12 -10 -1 -10 10 0 12 -16 9 -70 l-4 -70 28 0
c15 0 28 5 28 10 0 6 -4 10 -10 10 -15 0 -12 57 6 91 9 19 21 29 32 27 14 -3
17 -16 18 -68 1 -62 2 -65 28 -68 28 -4 36 12 10 22 -12 5 -15 16 -12 49 9 81
-21 110 -69 65 l-23 -21 0 21 c0 23 -15 28 -40 12z"/>
<path d="M1820 900 c-10 -6 -11 -10 -2 -10 8 0 12 -19 12 -60 0 -33 -4 -60
-10 -60 -5 0 -10 -4 -10 -10 0 -5 16 -10 35 -10 19 0 35 5 35 10 0 6 -4 10
-10 10 -6 0 -10 30 -10 70 0 72 -7 82 -40 60z"/>
<path d="M1919 897 c6 -8 21 -41 33 -74 13 -33 27 -61 32 -62 5 -1 20 23 33
55 13 32 30 66 40 76 15 17 15 18 -15 18 -25 0 -29 -3 -25 -19 6 -24 -15 -93
-27 -86 -4 3 -14 28 -21 55 -11 43 -16 50 -37 50 -19 0 -22 -3 -13 -13z"/>
<path d="M2165 903 c19 -5 35 -20 35 -35 0 -5 -16 -8 -36 -8 -33 0 -36 2 -31
23 l6 22 -20 -24 c-26 -32 -25 -82 4 -109 28 -26 59 -28 78 -5 11 13 11 15 1
9 -22 -13 -58 2 -70 29 -19 41 -15 45 43 45 39 0 55 4 55 13 0 22 -34 47 -61
46 -20 -1 -21 -2 -4 -6z"/>
<path d="M2290 900 c-12 -8 -12 -10 -1 -10 10 0 12 -16 9 -70 l-4 -70 33 0
c18 0 33 5 33 10 0 6 -7 10 -15 10 -18 0 -20 45 -5 85 7 17 7 24 0 20 -6 -3
-10 3 -10 14 0 22 -16 27 -40 11z"/>
<path d="M2367 903 c-3 -5 4 -17 14 -27 19 -19 19 -19 19 7 0 25 -22 38 -33
20z"/>
<path d="M2472 898 c-21 -21 -13 -45 25 -75 25 -21 34 -35 30 -46 -9 -24 -42
-21 -61 6 l-16 22 2 -25 c6 -50 98 -30 98 21 0 10 -16 30 -35 45 -19 14 -35
33 -35 40 0 23 36 16 48 -8 10 -23 11 -23 11 5 1 23 -3 27 -27 27 -15 0 -33
-5 -40 -12z"/>
<path d="M2615 900 c-11 -5 -14 -9 -6 -9 10 -1 12 -17 9 -71 l-4 -70 28 0 c15
0 28 5 28 10 0 6 -4 10 -10 10 -6 0 -10 30 -10 70 0 72 -1 74 -35 60z"/>
<path d="M2916 901 c12 -5 24 -16 27 -25 5 -13 -1 -16 -33 -16 -42 0 -48 7
-27 30 6 8 2 6 -10 -4 -17 -14 -23 -30 -23 -61 0 -69 51 -97 101 -55 l24 19
-32 -11 c-27 -10 -35 -9 -52 7 -12 10 -21 28 -21 41 0 21 5 23 55 26 54 3 54
3 42 28 -9 17 -22 26 -42 27 -26 2 -27 1 -9 -6z"/>
<path d="M591 819 c-28 -46 -33 -121 -16 -233 17 -115 19 -187 5 -235 -11 -41
-8 -46 18 -32 62 33 74 121 38 278 -27 118 -32 185 -16 227 14 37 -6 33 -29
-5z"/>
<path d="M1254 590 c0 -146 2 -205 3 -132 2 72 2 192 0 265 -1 72 -3 13 -3
-133z"/>
<path d="M321 564 c0 -11 3 -14 6 -6 3 7 2 16 -1 19 -3 4 -6 -2 -5 -13z"/>
<path d="M841 563 c-1 -28 -21 -41 -21 -14 0 12 -4 21 -10 21 -15 0 -12 -26 5
-40 21 -17 38 0 32 31 -4 23 -4 23 -6 2z"/>
<path d="M1470 567 c-21 -9 -22 -11 -7 -14 17 -4 18 -15 15 -108 l-3 -103 45
5 c52 5 86 32 95 74 8 37 -1 66 -27 80 -16 9 -26 7 -49 -10 -37 -28 -43 -27
-36 8 3 15 3 40 -1 53 -6 23 -10 24 -32 15z m108 -89 c17 -17 15 -84 -4 -102
-35 -35 -81 -7 -69 41 15 61 46 88 73 61z"/>
<path d="M2468 573 c6 -2 12 -11 12 -19 0 -8 5 -14 10 -14 6 0 10 9 10 20 0
14 -6 20 -22 19 -13 0 -17 -3 -10 -6z"/>
<path d="M2854 565 c-11 -8 -14 -15 -6 -15 9 0 12 -26 12 -94 0 -67 -4 -96
-12 -99 -7 -2 2 -6 20 -9 18 -2 35 -1 38 4 3 4 0 8 -5 8 -7 0 -11 39 -11 110
0 61 -4 110 -8 110 -5 0 -17 -7 -28 -15z"/>
<path d="M1140 551 c0 -11 5 -23 10 -26 6 -4 10 5 10 19 0 14 -4 26 -10 26 -5
0 -10 -9 -10 -19z"/>
<path d="M66 551 c-3 -5 1 -11 9 -14 9 -4 12 -1 8 9 -6 16 -10 17 -17 5z"/>
<path d="M216 552 c-3 -6 -1 -14 5 -17 15 -10 25 3 12 16 -7 7 -13 7 -17 1z"/>
<path d="M860 545 c0 -8 5 -15 10 -15 6 0 10 6 10 13 0 8 4 7 10 -3 8 -13 10
-12 10 3 0 10 -8 17 -20 17 -11 0 -20 -7 -20 -15z"/>
<path d="M921 544 c0 -11 3 -14 6 -6 3 7 2 16 -1 19 -3 4 -6 -2 -5 -13z"/>
<path d="M943 546 c5 -16 24 -18 30 -4 3 9 -3 14 -14 14 -11 0 -18 -5 -16 -10z"/>
<path d="M992 543 c2 -9 9 -18 16 -19 7 -1 8 0 2 3 -5 2 -10 9 -10 14 0 6 5 7
10 4 6 -3 10 -1 10 4 0 6 -7 11 -16 11 -9 0 -14 -7 -12 -17z"/>
<path d="M1040 545 c0 -8 2 -15 4 -15 2 0 6 7 10 15 3 8 1 15 -4 15 -6 0 -10
-7 -10 -15z"/>
<path d="M1070 550 c0 -5 5 -10 11 -10 5 0 7 -4 4 -10 -3 -5 0 -7 9 -4 8 3 12
12 9 20 -6 16 -33 19 -33 4z"/>
<path d="M1121 544 c0 -11 3 -14 6 -6 3 7 2 16 -1 19 -3 4 -6 -2 -5 -13z"/>
<path d="M1172 543 c2 -9 9 -18 17 -21 8 -3 11 0 7 7 -4 6 -2 11 3 11 6 0 11
5 11 10 0 6 -9 10 -21 10 -14 0 -19 -5 -17 -17z"/>
<path d="M1343 549 c14 -8 17 -24 17 -92 0 -46 -5 -88 -11 -94 -7 -7 -1 -12
22 -17 37 -7 48 -1 31 16 -16 16 -16 170 0 186 9 9 2 12 -32 12 -36 -1 -41 -3
-27 -11z"/>
<path d="M1990 533 l0 -27 16 22 c8 12 24 22 35 22 17 0 19 -8 19 -88 0 -49
-5 -93 -11 -99 -7 -7 -1 -12 22 -17 37 -7 48 -1 31 16 -7 7 -12 46 -12 100 0
96 10 109 50 66 l20 -22 0 27 0 27 -85 0 -85 0 0 -27z"/>
<path d="M2420 523 c-14 -23 -18 -39 -11 -41 15 -5 14 -105 -1 -120 -9 -9 -8
-12 4 -12 9 0 23 -2 30 -5 11 -4 13 8 10 65 -4 63 -2 70 14 70 16 0 15 2 -5
16 -16 12 -22 23 -18 40 6 32 3 30 -23 -13z"/>
<path d="M2710 545 c0 -8 7 -15 15 -15 8 0 15 7 15 15 0 8 -7 15 -15 15 -8 0
-15 -7 -15 -15z"/>
<path d="M2770 545 c0 -8 7 -15 15 -15 8 0 15 7 15 15 0 8 -7 15 -15 15 -8 0
-15 -7 -15 -15z"/>
<path d="M286 542 c-3 -5 1 -9 9 -9 8 0 12 4 9 9 -3 4 -7 8 -9 8 -2 0 -6 -4
-9 -8z"/>
<path d="M390 540 c8 -5 20 -10 25 -10 6 0 3 5 -5 10 -8 5 -19 10 -25 10 -5 0
-3 -5 5 -10z"/>
<path d="M941 494 c13 -16 39 -19 39 -5 0 5 -11 11 -25 13 -20 4 -23 3 -14 -8z"/>
<path d="M1680 495 c-19 -11 -21 -14 -7 -15 14 0 17 -9 17 -54 0 -33 -5 -58
-12 -62 -9 -6 -5 -10 12 -14 32 -9 44 -2 29 16 -22 27 14 124 46 124 12 0 15
-15 15 -69 0 -60 2 -69 20 -74 11 -3 23 -1 26 4 3 5 0 9 -5 9 -7 0 -11 26 -11
64 0 89 -32 109 -81 50 -13 -16 -14 -15 -19 9 -5 24 -6 25 -30 12z"/>
<path d="M2229 482 c-26 -23 -33 -37 -33 -67 0 -64 62 -96 110 -57 63 51 53
131 -17 147 -21 5 -34 0 -60 -23z m75 -14 c19 -27 21 -79 4 -96 -19 -19 -55
-14 -72 10 -19 27 -21 79 -4 96 19 19 55 14 72 -10z"/>
<path d="M2603 499 c24 -14 21 -36 -5 -50 -40 -20 -68 -52 -68 -76 0 -31 24
-39 55 -19 30 20 35 20 35 1 0 -20 24 -19 41 2 10 11 10 14 2 9 -10 -5 -13 7
-13 49 0 67 -13 95 -43 95 -20 -1 -20 -2 -4 -11z m2 -115 c-18 -28 -48 -29
-53 -2 -2 11 9 25 30 38 28 17 33 18 36 5 2 -9 -4 -27 -13 -41z"/>
<path d="M2734 495 c-11 -8 -14 -14 -6 -15 8 0 12 -19 12 -59 0 -39 -4 -61
-12 -64 -7 -2 2 -6 20 -9 18 -2 35 -1 38 4 3 4 0 8 -5 8 -7 0 -11 27 -11 69 0
76 -7 88 -36 66z"/>
<path d="M286 493 c-11 -11 -7 -25 5 -17 9 5 10 -9 7 -50 -5 -65 -19 -86 -43
-66 -17 14 -21 35 -5 25 6 -3 10 1 10 9 0 28 -20 17 -26 -13 -6 -29 -34 -52
-34 -28 0 8 -3 8 -9 -2 -5 -7 -14 -10 -20 -7 -19 12 -12 42 12 55 22 11 22 11
0 6 -18 -5 -22 -1 -26 22 l-4 28 -2 -28 c-1 -22 -9 -31 -34 -42 -47 -19 -59
-38 -55 -82 3 -33 7 -38 31 -41 22 -3 31 3 45 27 15 27 36 37 66 32 4 -1 14 3
22 9 7 7 23 9 35 5 16 -5 29 1 55 26 39 37 47 74 14 64 -17 -6 -20 -2 -20 29
0 34 -11 52 -24 39z m44 -98 c-7 -9 -15 -13 -17 -11 -7 7 7 26 19 26 6 0 6 -6
-2 -15z m-180 -38 c0 -34 -28 -69 -53 -65 -33 5 -33 41 -1 67 35 27 54 27 54
-2z"/>
<path d="M703 449 c-12 -30 -24 -70 -27 -89 l-6 -35 18 38 c9 21 21 35 26 30
5 -4 5 2 2 14 -4 12 -2 32 4 43 6 12 10 28 8 37 -2 9 -13 -8 -25 -38z"/>
<path d="M1188 457 c-25 -65 -41 -118 -35 -123 6 -7 60 142 56 155 -2 6 -11
-8 -21 -32z"/>
<path d="M2550 485 c-6 -8 -10 -22 -8 -32 3 -14 7 -11 20 15 17 33 10 43 -12
17z"/>
<path d="M1061 464 c0 -11 3 -14 6 -6 3 7 2 16 -1 19 -3 4 -6 -2 -5 -13z"/>
<path d="M1003 345 c-16 -63 -26 -115 -22 -115 9 0 23 47 45 149 24 114 10 94
-23 -34z"/>
<path d="M508 419 c-2 -25 -8 -34 -20 -33 -13 1 -18 -6 -18 -25 0 -30 -16 -51
-38 -51 -11 0 -13 9 -9 35 6 38 -3 45 -24 18 -10 -11 -11 -17 -3 -20 7 -2 10
-12 8 -21 -2 -9 0 -24 6 -32 13 -20 39 -4 60 36 8 16 20 33 27 39 19 16 35 67
24 78 -6 6 -11 -3 -13 -24z"/>
<path d="M914 390 c-12 -33 -18 -60 -13 -60 11 0 42 85 37 104 -1 9 -12 -10
-24 -44z"/>
<path d="M905 429 c-4 -6 -5 -12 -2 -15 2 -3 7 2 10 11 7 17 1 20 -8 4z"/>
<path d="M435 400 c-3 -5 -1 -10 4 -10 6 0 11 5 11 10 0 6 -2 10 -4 10 -3 0
-8 -4 -11 -10z"/>
<path d="M744 370 c-12 -43 -4 -54 13 -17 6 12 7 30 4 40 -5 13 -9 8 -17 -23z"/>
<path d="M781 379 c-13 -39 -14 -49 -1 -49 10 0 26 68 17 76 -2 3 -10 -9 -16
-27z"/>
<path d="M952 393 c-7 -12 -12 -32 -11 -45 1 -20 3 -18 15 11 17 38 13 67 -4
34z"/>
<path d="M1050 389 c-6 -11 -10 -29 -8 -39 2 -14 8 -9 20 20 17 41 7 56 -12
19z"/>
<path d="M1081 378 c-6 -17 -8 -35 -3 -40 4 -4 13 10 19 32 12 47 0 54 -16 8z"/>
<path d="M1120 384 c-6 -14 -10 -32 -10 -40 0 -17 17 -19 17 -1 0 6 4 24 8 40
9 34 -2 36 -15 1z"/>
<path d="M860 364 c0 -8 5 -12 10 -9 6 4 8 11 5 16 -9 14 -15 11 -15 -7z"/>
<path d="M185 290 c-3 -5 -1 -10 4 -10 6 0 11 5 11 10 0 6 -2 10 -4 10 -3 0
-8 -4 -11 -10z"/>
</g>
</svg>
