<?xml version="1.0" standalone="no"?>
<!DOCTYPE svg PUBLIC "-//W3C//DTD SVG 20010904//EN"
 "http://www.w3.org/TR/2001/REC-SVG-20010904/DTD/svg10.dtd">
<svg version="1.0" xmlns="http://www.w3.org/2000/svg"
 width="430.000000pt" height="115.000000pt" viewBox="0 0 430.000000 115.000000"
 preserveAspectRatio="xMidYMid meet">

<g transform="translate(0.000000,115.000000) scale(0.100000,-0.100000)"
fill="#000000" stroke="none">
<path d="M853 836 c-203 -209 -219 -224 -237 -210 -19 13 -19 15 8 65 64 117
11 276 -112 335 -134 64 -303 -9 -347 -148 -21 -66 -15 -125 20 -194 l24 -48
-29 -26 -29 -25 6 -233 6 -232 561 2 561 3 3 468 2 467 -102 -2 -103 -2 98 -3
97 -4 0 -459 0 -460 -517 2 -518 3 -3 33 c-2 21 1 32 10 32 7 1 85 2 173 2
127 2 138 2 52 5 l-108 4 98 104 c54 58 101 105 106 105 5 0 7 -45 5 -100 l-3
-100 33 0 32 0 0 138 0 137 92 95 c367 380 378 390 419 390 l39 0 0 -67 0 -68
-29 -1 c-46 -2 -118 -50 -141 -94 -26 -51 -26 -124 0 -175 20 -38 20 -38 0
-52 -18 -13 -20 -26 -20 -159 l0 -144 30 0 30 0 0 140 c0 127 2 142 20 160 11
11 25 20 32 20 6 0 0 12 -14 28 -52 55 -59 91 -31 149 20 43 68 75 106 70 l27
-4 0 104 0 103 -47 0 -48 0 -230 -240 c-126 -132 -234 -240 -238 -240 -4 0 -7
20 -5 44 3 43 10 52 226 275 123 127 221 231 219 231 -3 0 -104 -101 -224
-224z m-388 124 c22 -10 48 -25 57 -33 23 -18 57 -95 58 -126 0 -40 -38 -106
-78 -135 -29 -20 -33 -26 -17 -26 28 0 62 -26 79 -59 14 -27 14 -27 -154 -201
l-169 -175 0 186 c-1 174 0 188 20 213 12 15 30 26 45 26 29 0 31 11 4 28 -36
22 -80 102 -80 144 0 73 56 146 128 168 42 13 64 11 107 -10z m115 -471 c0
-38 -7 -48 -112 -160 -109 -117 -112 -119 -155 -119 -23 0 -43 3 -43 6 0 9
293 312 303 313 4 1 7 -17 7 -40z"/>
<path d="M1460 731 c0 -30 -5 -51 -12 -54 -7 -3 47 -6 121 -6 120 -1 132 1
120 15 -34 42 -128 56 -191 29 -15 -6 -18 -2 -18 29 0 20 -4 36 -10 36 -5 0
-10 -22 -10 -49z m198 -34 c15 -16 10 -17 -81 -17 -98 0 -115 8 -63 31 33 14
124 5 144 -14z"/>
<path d="M1732 728 c-1 -42 2 -58 11 -58 18 0 43 21 50 43 9 25 -6 21 -18 -5
-19 -41 -34 -32 -38 24 l-3 53 -2 -57z"/>
<path d="M1891 749 c0 -19 -8 -44 -16 -55 -14 -18 -14 -18 -15 8 0 15 -4 30
-10 33 -6 4 -10 -8 -10 -30 0 -20 -5 -45 -10 -56 -8 -13 -7 -19 1 -19 6 0 13
9 16 20 3 10 14 22 24 25 22 7 32 40 26 81 -4 26 -4 25 -6 -7z"/>
<path d="M1920 725 c0 -46 3 -55 18 -55 9 0 22 4 28 8 16 10 34 48 27 56 -4 3
-12 -7 -19 -24 -19 -45 -34 -37 -34 20 0 28 -4 50 -10 50 -5 0 -10 -25 -10
-55z"/>
<path d="M2472 728 l-2 -58 119 0 c92 0 121 3 131 15 17 20 26 95 11 95 -6 0
-11 -17 -11 -39 0 -54 -19 -67 -62 -41 -40 23 -121 41 -138 30 -7 -4 -1 -7 14
-7 34 0 115 -23 122 -34 3 -5 -35 -9 -85 -9 l-90 0 -4 53 -3 52 -2 -57z"/>
<path d="M2763 725 c0 -33 2 -45 4 -27 2 18 2 45 0 60 -2 15 -4 0 -4 -33z"/>
<path d="M3952 728 l3 -53 115 -3 c62 -1 111 1 107 5 -4 4 -52 6 -107 4 l-100
-3 0 51 c0 29 -5 51 -11 51 -6 0 -9 -21 -7 -52z"/>
<path d="M1190 490 l0 -279 -67 -4 -68 -3 73 -2 72 -2 0 285 c0 157 -2 285 -5
285 -3 0 -5 -126 -5 -280z"/>
<path d="M3610 760 c0 -5 5 -10 10 -10 6 0 10 5 10 10 0 6 -4 10 -10 10 -5 0
-10 -4 -10 -10z"/>
<path d="M2974 725 c34 -32 33 -43 -6 -48 -18 -3 -8 -4 22 -3 30 1 63 6 73 10
12 6 17 4 17 -9 0 -11 -5 -15 -15 -11 -8 3 -15 2 -15 -3 0 -5 9 -11 20 -14 13
-3 20 0 20 9 0 11 23 14 114 14 66 0 117 4 121 10 10 16 35 12 35 -6 0 -10 -6
-14 -15 -10 -8 3 -15 2 -15 -3 0 -5 9 -11 20 -14 18 -5 20 0 20 40 l0 45 -29
-24 c-26 -23 -38 -25 -140 -27 l-111 -2 0 26 0 27 -31 -27 -32 -26 -29 35
c-16 20 -34 36 -40 36 -6 0 1 -11 16 -25z"/>
<path d="M2248 734 c-5 -4 -8 -25 -8 -46 0 -35 -2 -37 -19 -26 -10 6 -26 24
-36 40 -9 16 -19 27 -22 24 -10 -10 27 -56 60 -76 32 -20 32 -20 35 0 4 25 38
46 45 27 3 -9 9 -9 27 1 18 11 24 11 31 1 6 -10 13 -10 34 -1 33 15 35 15 35
-4 0 -11 -6 -14 -17 -10 -15 5 -15 4 1 -9 30 -23 36 -19 36 23 0 50 -6 55 -35
26 -32 -32 -43 -30 -47 9 l-4 32 -12 -27 c-13 -32 -43 -39 -35 -9 3 10 0 22
-6 25 -6 4 -11 1 -11 -7 0 -8 -9 -22 -19 -31 -19 -17 -20 -17 -23 14 -2 18 -6
28 -10 24z"/>
<path d="M3120 733 c0 -5 16 -9 35 -11 20 -1 52 -9 72 -17 20 -8 38 -13 41
-10 8 7 -58 32 -105 39 -24 3 -43 3 -43 -1z"/>
<path d="M3640 733 c-39 -11 -89 -37 -94 -49 -3 -7 11 -2 31 12 47 32 73 32
73 -1 l0 -25 118 3 c64 2 125 7 135 11 13 6 17 4 17 -9 0 -11 -5 -15 -15 -11
-22 8 -18 -1 5 -14 19 -10 20 -8 20 37 l0 47 -28 -27 c-21 -20 -38 -27 -68
-26 l-39 1 30 13 30 13 -39 17 c-33 14 -46 15 -83 5 -50 -15 -53 -22 -15 -37
26 -11 26 -11 -15 -12 -39 -1 -42 1 -45 27 -2 20 -8 28 -18 25z m168 -12 c21
-2 13 -19 -13 -25 -28 -7 -75 2 -75 14 0 10 27 17 55 14 11 -1 26 -3 33 -3z"/>
<path d="M4000 732 c0 -5 16 -9 35 -10 19 -1 51 -8 71 -17 43 -18 47 -18 39
-5 -10 16 -145 47 -145 32z"/>
<path d="M1775 650 c3 -5 8 -10 11 -10 2 0 4 5 4 10 0 6 -5 10 -11 10 -5 0 -7
-4 -4 -10z"/>
<path d="M4070 650 c0 -5 5 -10 10 -10 6 0 10 5 10 10 0 6 -4 10 -10 10 -5 0
-10 -4 -10 -10z"/>
<path d="M2548 544 c-12 -11 -10 -124 2 -124 6 0 10 11 10 24 0 14 5 28 11 32
14 9 30 -16 25 -38 -2 -10 0 -18 6 -18 5 0 8 15 6 33 -2 24 -8 33 -25 35 -16
2 -23 11 -25 34 -2 16 -6 26 -10 22z"/>
<path d="M3160 521 c0 -25 -4 -30 -27 -33 -22 -2 -29 -9 -31 -29 -4 -33 19
-52 52 -43 25 6 26 10 26 70 0 36 -4 64 -10 64 -5 0 -10 -13 -10 -29z m-2 -69
c3 -16 -2 -22 -17 -22 -26 0 -36 17 -20 36 16 19 33 13 37 -14z"/>
<path d="M3530 521 c0 -26 -4 -31 -25 -31 -35 0 -50 -32 -27 -59 12 -15 24
-18 45 -14 26 5 27 8 27 64 0 32 -4 61 -10 64 -6 4 -10 -7 -10 -24z m-2 -69
c3 -17 -2 -22 -18 -22 -25 0 -38 29 -19 41 20 13 34 6 37 -19z"/>
<path d="M3940 486 c0 -60 1 -64 26 -70 30 -8 54 8 54 34 0 23 -26 44 -45 36
-12 -4 -15 2 -15 29 0 19 -4 35 -10 35 -6 0 -10 -28 -10 -64z m58 -34 c3 -17
-2 -22 -17 -22 -14 0 -21 6 -21 18 0 38 33 41 38 4z"/>
<path d="M1528 488 c-3 -49 -5 -53 -28 -53 -23 0 -25 4 -28 48 -4 59 -22 62
-22 4 0 -57 27 -86 65 -69 22 10 25 18 25 67 0 70 -8 72 -12 3z"/>
<path d="M2296 496 c-4 -27 -10 -55 -13 -62 -3 -8 0 -14 6 -14 6 0 11 11 11
23 0 38 13 40 31 5 l17 -32 17 35 18 34 9 -32 c12 -46 28 -41 18 5 -5 20 -10
46 -12 57 -4 16 -8 13 -23 -17 -10 -21 -21 -38 -25 -38 -3 0 -15 19 -27 42
l-20 43 -7 -49z"/>
<path d="M3271 535 c0 -5 12 -36 27 -67 l27 -57 27 60 c15 32 22 59 17 59 -6
0 -17 -16 -25 -35 -17 -40 -29 -45 -37 -12 -7 24 -36 68 -36 52z"/>
<path d="M1670 520 c0 -5 5 -10 10 -10 6 0 10 5 10 10 0 6 -4 10 -10 10 -5 0
-10 -4 -10 -10z"/>
<path d="M2020 520 c0 -5 5 -10 10 -10 6 0 10 5 10 10 0 6 -4 10 -10 10 -5 0
-10 -4 -10 -10z"/>
<path d="M2145 520 c-3 -5 -2 -10 4 -10 5 0 13 5 16 10 3 6 2 10 -4 10 -5 0
-13 -4 -16 -10z"/>
<path d="M3745 475 c0 -30 3 -55 8 -55 4 0 7 10 7 22 0 21 1 21 30 -7 31 -30
42 -25 14 6 -12 14 -13 21 -3 37 18 28 5 52 -28 52 -27 0 -28 -2 -28 -55z m50
25 c0 -8 -8 -16 -17 -18 -13 -2 -18 3 -18 18 0 15 5 20 18 18 9 -2 17 -10 17
-18z"/>
<path d="M2058 503 c-5 -27 3 -83 12 -83 10 0 19 58 12 82 -6 23 -20 23 -24 1z"/>
<path d="M4150 510 c-6 -34 -4 -90 3 -90 4 0 7 10 7 23 0 13 5 28 12 35 8 8 9
12 1 12 -6 0 -14 8 -16 18 -4 13 -5 14 -7 2z"/>
<path d="M1572 456 c3 -43 15 -48 20 -8 4 37 31 35 40 -3 6 -29 6 -29 5 5 -2
32 -5 35 -35 38 -31 3 -32 2 -30 -32z"/>
<path d="M1670 455 c0 -19 5 -35 10 -35 6 0 10 16 10 35 0 19 -4 35 -10 35 -5
0 -10 -16 -10 -35z"/>
<path d="M1717 455 c9 -19 20 -35 23 -35 3 0 14 16 23 35 9 19 13 35 8 35 -4
0 -12 -10 -18 -22 l-10 -23 -12 23 c-19 36 -32 25 -14 -13z"/>
<path d="M1802 478 c-28 -28 -1 -75 38 -63 29 9 25 23 -5 17 -15 -2 -25 0 -25
7 0 6 14 11 30 11 28 0 30 2 20 20 -12 22 -40 26 -58 8z m38 -8 c0 -5 -7 -10
-16 -10 -8 0 -12 5 -9 10 3 6 10 10 16 10 5 0 9 -4 9 -10z"/>
<path d="M1891 453 c2 -31 3 -33 6 -10 2 15 11 27 18 27 8 0 17 5 20 10 4 6
-5 10 -19 10 -24 0 -26 -4 -25 -37z"/>
<path d="M1954 478 c-4 -6 0 -16 9 -23 22 -16 22 -25 0 -25 -13 0 -14 -3 -6
-11 15 -15 43 -4 43 16 0 9 -7 18 -15 21 -8 4 -15 10 -15 16 0 5 5 6 10 3 6
-3 10 -1 10 4 0 15 -27 14 -36 -1z"/>
<path d="M2020 455 c0 -19 5 -35 10 -35 6 0 10 16 10 35 0 19 -4 35 -10 35 -5
0 -10 -16 -10 -35z"/>
<path d="M2117 484 c-12 -12 -8 -51 8 -64 15 -12 55 -5 55 11 0 5 -11 7 -25 3
-15 -4 -25 -2 -25 5 0 6 12 11 26 11 19 0 25 5 22 18 -3 17 -48 29 -61 16z
m43 -14 c0 -5 -7 -10 -15 -10 -8 0 -15 5 -15 10 0 6 7 10 15 10 8 0 15 -4 15
-10z"/>
<path d="M2452 478 c-32 -32 8 -80 48 -58 24 13 27 55 4 64 -24 9 -39 7 -52
-6z m48 -13 c15 -17 5 -35 -20 -35 -22 0 -33 23 -17 39 15 15 22 14 37 -4z"/>
<path d="M2642 474 c-20 -36 6 -68 47 -57 16 4 21 13 21 39 0 31 -3 34 -30 34
-16 0 -33 -7 -38 -16z m48 -9 c13 -16 6 -35 -15 -35 -18 0 -28 17 -21 35 7 19
20 19 36 0z"/>
<path d="M2740 455 c0 -19 5 -35 10 -35 6 0 10 14 10 31 0 39 23 34 31 -7 l6
-29 4 29 c6 41 29 46 29 7 0 -17 5 -31 11 -31 6 0 9 14 7 33 -3 31 -4 32 -55
34 l-53 3 0 -35z"/>
<path d="M2870 455 c0 -41 17 -47 22 -7 4 33 22 32 26 -3 2 -14 7 -25 12 -25
5 0 7 7 4 15 -7 18 14 47 27 39 5 -3 6 -16 3 -30 -4 -15 -2 -24 6 -24 7 0 10
13 8 33 -3 31 -4 32 -55 35 l-53 2 0 -35z"/>
<path d="M3010 471 c-21 -41 26 -79 58 -47 15 15 14 16 -16 10 -21 -4 -32 -3
-32 5 0 6 14 11 30 11 32 0 37 9 18 28 -18 18 -46 14 -58 -7z m45 -1 c3 -5 -1
-10 -9 -10 -9 0 -16 5 -16 10 0 6 4 10 9 10 6 0 13 -4 16 -10z"/>
<path d="M3577 484 c-12 -12 -8 -51 8 -64 8 -6 23 -9 35 -5 29 9 25 23 -5 17
-15 -2 -25 0 -25 7 0 6 12 11 26 11 19 0 25 5 22 18 -3 17 -48 29 -61 16z m43
-14 c0 -5 -7 -10 -15 -10 -8 0 -15 5 -15 10 0 6 7 10 15 10 8 0 15 -4 15 -10z"/>
<path d="M3847 483 c-12 -11 -8 -50 6 -61 7 -6 23 -9 35 -5 17 4 22 13 22 39
0 31 -3 34 -28 34 -16 0 -32 -3 -35 -7z m51 -26 c4 -21 -25 -34 -40 -19 -8 8
-8 16 2 27 16 19 34 15 38 -8z"/>
<path d="M4046 474 c-15 -40 10 -68 52 -57 17 4 22 13 22 39 0 32 -2 34 -34
34 -22 0 -36 -6 -40 -16z m52 -22 c3 -17 -2 -22 -17 -22 -14 0 -21 6 -21 18 0
38 33 41 38 4z"/>
<path d="M738 203 c56 -2 148 -2 205 0 56 1 10 3 -103 3 -113 0 -159 -2 -102
-3z"/>
</g>
</svg>
