<?xml version="1.0" standalone="no"?>
<!DOCTYPE svg PUBLIC "-//W3C//DTD SVG 20010904//EN"
 "http://www.w3.org/TR/2001/REC-SVG-20010904/DTD/svg10.dtd">
<svg version="1.0" xmlns="http://www.w3.org/2000/svg"
 width="171.000000pt" height="216.000000pt" viewBox="0 0 171.000000 216.000000"
 preserveAspectRatio="xMidYMid meet">

<g transform="translate(0.000000,216.000000) scale(0.100000,-0.100000)"
fill="#000000" stroke="none">
<path d="M715 2149 c-126 -18 -274 -76 -384 -151 -103 -70 -232 -220 -294
-344 l-26 -51 60 -17 c80 -22 171 -68 219 -112 22 -20 54 -65 72 -101 31 -63
32 -72 39 -227 l7 -161 -3 170 c-2 150 -6 180 -29 259 -44 145 -112 265 -191
335 -19 17 -35 33 -35 36 0 10 105 -47 158 -87 110 -82 215 -242 274 -418 28
-84 29 -85 22 -30 -10 87 -59 270 -98 366 -43 107 -84 175 -155 261 l-53 65
63 -43 c81 -55 226 -194 290 -279 28 -36 72 -110 99 -165 28 -55 50 -98 50
-95 0 16 -45 167 -72 240 -57 157 -165 346 -237 414 -50 48 -36 50 48 6 95
-50 194 -137 251 -223 33 -49 40 -55 35 -32 -25 114 -91 265 -140 323 l-27 32
30 0 c36 0 101 -43 140 -92 l29 -37 37 45 c39 46 100 84 136 84 20 0 20 -2 -8
-42 -47 -69 -90 -161 -112 -240 -27 -98 -26 -101 17 -38 20 30 62 79 92 109
55 52 192 141 219 141 8 0 -3 -20 -25 -47 -105 -126 -186 -279 -247 -463 -54
-165 -55 -188 -2 -84 51 101 105 179 186 267 55 60 184 168 242 201 29 18 27
13 -22 -41 -111 -123 -197 -318 -245 -558 -30 -146 -31 -176 -4 -80 26 88 85
215 137 291 71 104 194 209 287 244 25 9 19 0 -38 -59 -52 -53 -78 -92 -112
-163 -68 -143 -85 -232 -83 -418 l2 -155 6 170 c5 158 7 173 32 220 49 95 180
189 289 210 64 12 66 16 25 91 -77 138 -214 284 -337 357 -177 104 -402 147
-614 116z"/>
<path d="M1431 942 c-57 -9 -101 -62 -101 -124 0 -39 30 -92 62 -109 34 -18
101 -15 129 6 18 13 19 16 4 9 -11 -4 -41 -9 -67 -12 -42 -3 -51 -1 -77 26
-53 52 -53 112 0 164 26 27 35 29 77 26 26 -3 56 -8 67 -12 l20 -8 -20 14
c-23 17 -60 25 -94 20z"/>
<path d="M2 818 l2 -123 5 110 6 110 47 -78 46 -79 42 72 c24 39 40 73 37 76
-3 3 -20 -22 -38 -55 -19 -34 -37 -61 -41 -61 -3 0 -25 34 -48 75 -23 41 -46
75 -51 75 -5 0 -8 -52 -7 -122z"/>
<path d="M198 933 c-7 -19 4 -233 13 -233 5 0 9 52 9 120 0 68 -4 120 -9 120
-6 0 -11 -3 -13 -7z"/>
<path d="M460 820 c0 -73 4 -120 10 -120 6 0 10 18 10 40 0 35 3 40 23 40 15
0 30 -12 47 -40 14 -22 28 -40 32 -40 5 0 -3 18 -17 39 l-25 40 31 31 c26 26
30 36 25 63 -9 45 -39 67 -92 67 l-44 0 0 -120z m91 99 c50 -26 41 -99 -14
-119 -55 -19 -57 -16 -57 60 0 68 1 70 26 70 14 0 34 -5 45 -11z"/>
<path d="M632 818 c1 -68 3 -104 5 -80 4 38 7 42 31 42 21 0 32 -9 50 -40 12
-22 27 -40 32 -40 6 0 -2 18 -16 40 l-26 39 25 23 c37 33 40 85 7 118 -14 14
-33 20 -65 20 l-45 0 2 -122z m96 96 c15 -10 22 -25 22 -48 0 -41 -27 -67 -72
-69 l-33 -2 -3 68 -3 67 33 0 c19 0 44 -7 56 -16z"/>
<path d="M831 824 c-24 -63 -41 -118 -38 -120 2 -2 12 16 21 41 17 44 19 45
61 45 42 0 44 -1 61 -45 9 -25 19 -44 21 -42 3 4 -73 226 -81 234 -2 2 -22
-49 -45 -113z m79 -11 c0 -8 -14 -13 -35 -13 -40 0 -41 4 -18 62 l17 42 18
-39 c9 -22 18 -46 18 -52z"/>
<path d="M1004 820 c0 -69 1 -98 3 -65 2 33 8 64 12 68 5 5 27 -22 50 -58 24
-37 45 -65 47 -62 3 3 -15 36 -39 73 l-45 69 27 35 c36 46 44 60 34 60 -4 0
-24 -23 -43 -52 l-35 -51 -6 54 c-4 34 -6 7 -5 -71z"/>
<path d="M1170 820 l0 -120 63 2 62 2 -57 3 -58 4 0 49 0 50 55 0 c30 0 55 5
55 10 0 6 -25 10 -55 10 l-55 0 0 50 0 49 58 4 57 3 -62 2 -63 2 0 -120z"/>
<path d="M1584 820 c0 -69 1 -99 3 -67 l4 57 54 0 54 0 4 -57 c2 -32 3 -2 3
67 0 69 -1 97 -3 63 l-4 -63 -54 0 -54 0 -4 63 c-2 34 -3 6 -3 -63z"/>
<path d="M330 925 c0 -2 -18 -54 -40 -115 -21 -61 -35 -108 -30 -105 5 3 15
24 21 45 12 39 13 40 59 40 l47 0 13 -45 c7 -25 16 -45 21 -45 4 0 -8 44 -28
98 -19 53 -38 105 -40 115 -5 15 -23 25 -23 12z m28 -64 c7 -21 12 -43 12 -50
0 -11 -52 -16 -62 -6 -6 7 24 95 33 95 3 0 11 -17 17 -39z"/>
<path d="M402 593 l-2 -63 460 0 460 0 -2 63 -1 62 -6 -55 -6 -55 -447 -3
-447 -2 -4 57 -3 58 -2 -62z"/>
<path d="M262 330 l3 -75 68 1 c128 2 147 4 147 14 0 6 -9 10 -20 10 -11 0
-20 5 -20 10 0 6 9 10 20 10 11 0 20 6 20 13 0 9 -10 12 -30 9 -21 -3 -30 -10
-30 -23 0 -28 -37 -25 -43 4 l-4 22 -8 -22 c-6 -19 -15 -23 -46 -23 l-39 0 0
48 c0 26 -5 54 -10 62 -7 10 -9 -8 -8 -60z"/>
<path d="M1107 393 c-11 -10 -8 -133 3 -133 6 0 10 30 10 70 0 70 -1 76 -13
63z"/>
<path d="M1550 332 c0 -47 4 -71 13 -75 17 -6 119 4 115 12 -2 3 -10 18 -17
34 -14 26 -41 38 -41 17 0 -5 4 -10 9 -10 5 0 11 -7 15 -15 4 -12 -3 -15 -34
-15 l-40 0 0 54 c0 30 -4 58 -10 61 -6 4 -10 -20 -10 -63z"/>
<path d="M150 380 c0 -5 5 -10 10 -10 6 0 10 5 10 10 0 6 -4 10 -10 10 -5 0
-10 -4 -10 -10z"/>
<path d="M884 325 l1 -70 65 -1 c112 -1 110 -2 108 75 l-2 66 -3 -57 c-3 -50
-7 -58 -23 -58 -15 0 -20 7 -20 28 0 26 -3 28 -30 24 -37 -5 -42 -38 -7 -45
12 -2 -1 -5 -30 -6 l-52 -1 -4 58 c-3 49 -4 48 -3 -13z m106 -15 c0 -5 -4 -10
-10 -10 -5 0 -10 5 -10 10 0 6 5 10 10 10 6 0 10 -4 10 -10z"/>
<path d="M780 370 c0 -5 5 -10 10 -10 6 0 10 5 10 10 0 6 -4 10 -10 10 -5 0
-10 -4 -10 -10z"/>
<path d="M643 320 c-14 -6 -24 -21 -29 -45 -8 -46 -23 -54 -46 -25 l-18 22 0
-26 c0 -19 6 -27 25 -32 33 -8 53 9 57 48 4 38 25 49 30 16 2 -14 10 -23 21
-22 9 0 49 1 87 2 l70 2 0 31 0 30 -61 -2 c-50 -2 -63 -6 -67 -21 -7 -27 -32
-22 -32 7 0 27 -3 28 -37 15z m177 -30 c0 -5 -20 -10 -45 -10 -25 0 -45 5 -45
10 0 6 20 10 45 10 25 0 45 -4 45 -10z"/>
<path d="M1233 323 c-22 -4 -43 -47 -30 -59 5 -5 133 -8 240 -6 l57 2 0 34 c0
30 -2 33 -26 28 -14 -2 -31 -13 -37 -23 -9 -14 -24 -19 -59 -19 -26 0 -50 5
-53 10 -4 6 5 10 19 10 15 0 26 6 26 14 0 10 -8 12 -32 7 -24 -5 -32 -12 -30
-24 2 -11 -4 -17 -18 -17 -15 0 -20 6 -20 25 0 14 -3 24 -7 24 -5 -1 -18 -4
-30 -6z m238 -36 c-13 -13 -26 -3 -16 12 3 6 11 8 17 5 6 -4 6 -10 -1 -17z
m-221 3 c0 -5 -7 -10 -15 -10 -8 0 -15 5 -15 10 0 6 7 10 15 10 8 0 15 -4 15
-10z"/>
<path d="M87 313 c-4 -3 -7 -21 -7 -40 0 -40 -24 -55 -45 -27 -12 16 -14 17
-15 3 -1 -42 72 -50 83 -9 4 17 13 20 61 20 56 0 56 0 56 30 l0 30 -63 0 c-35
0 -67 -3 -70 -7z m113 -23 c0 -5 -20 -10 -45 -10 -25 0 -45 5 -45 10 0 6 20
10 45 10 25 0 45 -4 45 -10z"/>
<path d="M810 160 c0 -5 5 -10 10 -10 6 0 10 5 10 10 0 6 -4 10 -10 10 -5 0
-10 -4 -10 -10z"/>
<path d="M40 76 c0 -59 16 -82 48 -71 22 6 32 33 32 88 0 57 -19 44 -22 -15
-2 -41 -7 -54 -20 -56 -15 -3 -18 5 -18 52 0 31 -4 56 -10 56 -5 0 -10 -24
-10 -54z"/>
<path d="M140 65 c0 -37 4 -65 10 -65 6 0 10 19 11 43 l0 42 19 -42 c11 -24
22 -43 25 -43 3 0 4 30 4 68 -2 57 -3 61 -8 27 l-7 -40 -16 38 c-25 56 -38 46
-38 -28z"/>
<path d="M240 65 c0 -37 4 -65 10 -65 6 0 10 28 10 65 0 37 -4 65 -10 65 -6 0
-10 -28 -10 -65z"/>
<path d="M284 103 c19 -79 28 -103 35 -103 5 0 14 21 20 48 7 26 14 55 17 65
3 9 1 17 -5 17 -6 0 -14 -18 -17 -40 -7 -45 -24 -64 -24 -28 0 35 -11 68 -22
68 -6 0 -7 -12 -4 -27z"/>
<path d="M380 65 l0 -65 35 0 c19 0 35 5 35 10 0 6 -11 10 -25 10 -18 0 -25 5
-25 20 0 13 7 20 20 20 11 0 20 5 20 10 0 6 -9 10 -20 10 -33 0 -26 38 8 43
22 3 20 4 -10 6 l-38 1 0 -65z"/>
<path d="M470 66 c0 -37 4 -66 10 -66 6 0 10 12 10 28 1 26 1 26 15 8 8 -10
16 -24 18 -30 2 -6 7 -8 11 -4 4 3 2 16 -4 28 -9 16 -9 25 0 35 6 8 10 24 8
37 -2 18 -10 24 -35 26 l-33 3 0 -65z m48 26 c2 -15 -2 -22 -12 -22 -11 0 -16
9 -16 26 0 31 23 28 28 -4z"/>
<path d="M565 110 c-8 -25 10 -50 36 -50 12 0 19 -7 19 -20 0 -22 -35 -29 -43
-7 -2 6 -8 9 -12 5 -11 -11 14 -38 35 -38 23 0 43 24 38 47 -2 10 -16 24 -31
31 -15 7 -27 17 -27 22 0 15 21 23 33 11 16 -16 27 -14 21 4 -9 23 -61 19 -69
-5z"/>
<path d="M660 65 c0 -37 4 -65 10 -65 6 0 10 28 10 65 0 37 -4 65 -10 65 -6 0
-10 -28 -10 -65z"/>
<path d="M708 123 c8 -3 12 -26 12 -64 0 -33 4 -59 10 -59 6 0 10 26 10 59 0
48 3 60 18 64 9 3 -1 5 -23 5 -22 0 -34 -2 -27 -5z"/>
<path d="M780 65 l0 -65 35 0 c19 0 35 5 35 10 0 6 -11 10 -25 10 -18 0 -25 5
-25 20 0 13 7 20 20 20 11 0 20 5 20 10 0 6 -9 10 -20 10 -33 0 -26 38 8 43
22 3 20 4 -10 6 l-38 1 0 -65z"/>
<path d="M917 123 c-4 -3 -7 -28 -7 -55 0 -42 3 -50 25 -60 21 -9 29 -9 42 5
9 9 13 20 9 24 -4 4 -11 1 -16 -6 -16 -27 -40 -4 -40 38 0 44 13 59 36 40 16
-13 30 -6 19 10 -7 12 -58 15 -68 4z"/>
<path d="M1022 79 c-7 -28 -12 -58 -12 -67 1 -15 2 -15 11 1 13 22 35 22 48 0
18 -33 20 -8 4 55 -8 34 -21 62 -28 62 -6 0 -17 -23 -23 -51z m38 -21 c0 -5
-6 -8 -14 -8 -9 0 -12 7 -9 21 4 16 8 17 14 7 5 -7 9 -16 9 -20z"/>
<path d="M1110 65 c0 -57 2 -65 19 -65 44 0 51 10 51 71 l0 59 -35 0 -35 0 0
-65z m55 5 c0 -39 -3 -45 -22 -48 -21 -3 -23 1 -23 41 0 48 6 59 30 55 11 -2
15 -16 15 -48z"/>
<path d="M1210 65 c0 -37 4 -65 10 -65 6 0 10 28 10 65 0 37 -4 65 -10 65 -6
0 -10 -28 -10 -65z"/>
<path d="M1301 83 c-7 -26 -14 -56 -17 -65 -3 -10 -1 -18 5 -18 6 0 11 7 11
15 0 21 30 19 46 -2 11 -15 13 -15 13 -3 1 30 -25 114 -36 117 -6 2 -16 -18
-22 -44z m25 -30 c-11 -11 -19 6 -11 24 8 17 8 17 12 0 3 -10 2 -21 -1 -24z"/>
<path d="M1376 95 c7 -19 14 -48 14 -65 0 -16 5 -30 10 -30 6 0 10 16 10 36 0
19 5 44 11 55 6 11 8 25 5 32 -2 7 -8 2 -11 -10 -9 -28 -21 -29 -28 -3 -3 11
-10 20 -16 20 -6 0 -4 -13 5 -35z"/>
<path d="M1455 113 c4 -10 10 -39 12 -65 6 -52 23 -66 23 -19 0 16 7 45 15 65
16 39 5 51 -13 14 l-11 -23 -7 23 c-3 12 -11 22 -16 22 -6 0 -7 -8 -3 -17z"/>
<path d="M1541 93 c-5 -21 -13 -51 -16 -68 -6 -27 -5 -28 8 -12 17 21 47 22
47 2 0 -8 5 -15 11 -15 7 0 9 10 5 28 -20 79 -28 102 -36 102 -5 0 -14 -17
-19 -37z m29 -29 c0 -8 -4 -14 -10 -14 -5 0 -10 9 -10 21 0 11 5 17 10 14 6
-3 10 -13 10 -21z"/>
<path d="M1620 65 c0 -59 2 -65 21 -65 41 0 59 18 59 60 0 58 -8 70 -46 70
l-34 0 0 -65z m55 5 c0 -35 -4 -45 -17 -48 -15 -3 -18 4 -18 48 0 44 3 51 18
48 13 -3 17 -13 17 -48z"/>
</g>
</svg>
