<?xml version="1.0" standalone="no"?>
<!DOCTYPE svg PUBLIC "-//W3C//DTD SVG 20010904//EN"
 "http://www.w3.org/TR/2001/REC-SVG-20010904/DTD/svg10.dtd">
<svg version="1.0" xmlns="http://www.w3.org/2000/svg"
 width="207.000000pt" height="100.000000pt" viewBox="0 0 207.000000 100.000000"
 preserveAspectRatio="xMidYMid meet">

<g transform="translate(0.000000,100.000000) scale(0.100000,-0.100000)"
fill="#000000" stroke="none">
<path d="M1426 982 c-4 -4 -13 -7 -18 -7 -6 0 -13 -6 -16 -14 -3 -10 2 -11 19
-6 31 9 43 21 31 29 -5 3 -12 2 -16 -2z"/>
<path d="M370 942 c1 -9 4 -36 9 -58 l8 -42 -45 -5 c-40 -4 -61 -18 -62 -39 0
-5 7 -8 16 -8 8 0 12 -4 9 -10 -3 -5 -22 -10 -41 -10 -41 0 -52 19 -35 58 l11
27 -20 -24 c-36 -42 -21 -90 29 -92 18 -1 20 -3 8 -6 -9 -2 -15 -8 -12 -13 9
-14 44 1 38 16 -3 9 2 14 16 14 14 0 23 8 27 25 5 20 12 25 40 25 l34 0 -3 75
c-1 49 -6 76 -14 80 -8 2 -13 -3 -13 -13z"/>
<path d="M674 915 c4 -26 10 -54 13 -61 4 -10 -3 -14 -21 -14 -22 0 -26 4 -26
29 0 16 -7 34 -15 41 -13 11 -15 8 -15 -13 0 -14 5 -29 10 -32 20 -12 9 -25
-21 -25 -24 0 -30 -4 -27 -17 3 -15 16 -19 66 -21 l63 -3 -3 77 c-3 54 -8 79
-17 82 -11 4 -12 -5 -7 -43z"/>
<path d="M1240 945 c0 -9 5 -15 11 -13 6 2 11 8 11 13 0 5 -5 11 -11 13 -6 2
-11 -4 -11 -13z"/>
<path d="M419 945 c-3 -5 -4 -38 -1 -73 5 -70 12 -76 93 -70 54 4 61 23 24 66
-30 36 -30 38 -5 45 24 6 27 27 4 27 -27 0 -54 -20 -54 -40 0 -10 12 -28 28
-39 l27 -21 -50 2 -50 3 -5 55 c-3 30 -8 51 -11 45z"/>
<path d="M729 940 c-9 -23 2 -141 12 -134 10 6 10 74 0 119 -4 20 -8 25 -12
15z"/>
<path d="M1689 938 c-3 -39 4 -105 12 -120 13 -25 169 -27 169 -3 0 25 -59 77
-83 73 -27 -4 -35 -28 -8 -28 11 0 23 -4 26 -10 4 -6 -13 -10 -44 -10 l-51 0
0 49 c0 28 -4 53 -10 56 -5 3 -10 0 -11 -7z"/>
<path d="M1431 928 c0 -9 -9 -23 -19 -30 -11 -7 -24 -23 -30 -34 -10 -18 -9
-23 7 -27 10 -2 26 0 35 5 12 7 16 5 16 -11 0 -25 39 -37 68 -22 15 8 23 8 28
0 4 -7 21 -9 43 -5 20 3 41 7 46 8 6 0 20 -2 33 -6 18 -6 22 -4 22 16 -1 13
-7 34 -14 47 l-13 24 -23 -26 c-29 -34 -85 -39 -75 -8 4 14 0 23 -14 30 -37
20 -67 -9 -39 -37 9 -9 5 -12 -19 -12 -30 0 -32 2 -41 53 -5 28 -10 44 -11 35z
m-1 -48 c0 -5 -5 -10 -11 -10 -5 0 -7 5 -4 10 3 6 8 10 11 10 2 0 4 -4 4 -10z"/>
<path d="M1251 919 c-17 -7 -21 -13 -14 -20 12 -12 53 5 53 21 0 12 -7 12 -39
-1z"/>
<path d="M1080 890 c-12 -8 -13 -13 -2 -30 10 -16 10 -20 -1 -20 -7 0 -18 12
-25 28 l-12 27 4 -27 c3 -25 0 -28 -25 -28 -22 0 -29 5 -29 19 0 11 -5 23 -11
27 -8 5 -10 -1 -7 -20 5 -26 5 -26 -58 -26 -63 0 -64 0 -64 28 0 21 -2 24 -10
12 -14 -22 -12 -46 6 -64 12 -13 38 -16 120 -16 58 0 114 5 124 10 13 7 21 7
25 0 8 -13 62 -13 70 0 4 7 11 8 18 1 7 -5 33 -9 60 -9 47 1 47 1 47 35 0 18
-4 33 -10 33 -5 0 -10 -7 -10 -15 0 -21 -18 -19 -23 3 -4 16 -5 16 -6 0 -1
-13 -10 -18 -31 -18 -22 0 -30 5 -30 18 -1 16 -1 16 -11 0 -5 -10 -21 -18 -35
-18 -21 0 -24 4 -19 19 4 14 0 23 -14 30 -24 13 -22 13 -41 1z"/>
<path d="M904 779 c-10 -17 13 -36 27 -22 12 12 4 33 -11 33 -5 0 -12 -5 -16
-11z"/>
<path d="M1018 783 c-15 -4 -27 -33 -14 -33 19 0 56 22 51 30 -6 10 -9 11 -37
3z"/>
<path d="M1787 776 c-3 -8 1 -17 10 -20 20 -8 27 -1 20 19 -8 19 -23 20 -30 1z"/>
<path d="M1650 673 c0 -7 9 -13 20 -13 11 0 20 6 20 14 0 9 -9 14 -20 13 -11
-1 -20 -7 -20 -14z"/>
<path d="M318 649 c-21 -12 -24 -59 -6 -77 7 -7 21 -12 33 -12 46 0 62 57 23
84 -26 19 -27 19 -50 5z m40 -18 c21 -13 10 -46 -16 -49 -17 -3 -22 1 -22 21
0 35 13 45 38 28z"/>
<path d="M335 611 c-3 -5 -1 -12 5 -16 5 -3 10 1 10 9 0 18 -6 21 -15 7z"/>
<path d="M830 640 c-11 -11 -20 -26 -20 -33 0 -24 26 -49 46 -45 27 5 25 34
-3 31 -15 -2 -23 3 -23 12 0 9 8 14 22 12 14 -1 23 4 26 14 5 25 -26 31 -48 9z"/>
<path d="M900 644 c-9 -10 -10 -18 -2 -26 12 -12 32 -2 32 17 0 21 -16 26 -30
9z"/>
<path d="M1178 649 c-21 -12 -24 -59 -6 -77 7 -7 21 -12 33 -12 46 0 62 57 23
84 -26 19 -27 19 -50 5z m42 -19 c12 -8 9 -10 -13 -10 -16 0 -26 4 -22 10 8
12 16 12 35 0z m5 -40 c-3 -5 -15 -10 -26 -10 -10 0 -19 5 -19 10 0 6 12 10
26 10 14 0 23 -4 19 -10z"/>
<path d="M200 636 c0 -8 -6 -17 -12 -20 -10 -5 -10 -7 0 -12 6 -3 12 -14 12
-25 0 -10 4 -19 9 -19 11 0 20 46 14 71 -6 22 -23 26 -23 5z"/>
<path d="M417 605 c-17 -48 -4 -64 14 -17 l11 27 10 -27 c9 -26 28 -39 28 -19
0 18 -31 81 -39 81 -5 0 -16 -20 -24 -45z"/>
<path d="M550 605 c0 -45 0 -45 35 -45 35 0 35 0 35 45 0 25 -4 45 -10 45 -5
0 -10 -16 -10 -35 0 -24 -5 -35 -15 -35 -10 0 -15 11 -15 35 0 19 -4 35 -10
35 -5 0 -10 -20 -10 -45z"/>
<path d="M651 641 c-11 -7 -12 -13 -3 -23 8 -11 8 -18 1 -25 -8 -8 -5 -14 11
-23 22 -12 43 -5 24 8 -14 9 -14 43 -1 60 11 15 -10 17 -32 3z"/>
<path d="M740 605 c0 -25 5 -45 10 -45 6 0 10 20 10 45 0 25 -4 45 -10 45 -5
0 -10 -20 -10 -45z"/>
<path d="M970 635 c0 -8 -4 -15 -10 -15 -5 0 -10 -13 -10 -30 0 -16 5 -30 10
-30 6 0 10 9 10 20 0 11 7 20 15 20 8 0 15 -9 15 -20 0 -11 5 -20 10 -20 6 0
10 14 10 30 0 20 -5 30 -15 30 -8 0 -15 7 -15 15 0 8 -4 15 -10 15 -5 0 -10
-7 -10 -15z"/>
<path d="M1102 638 c-8 -8 -9 -15 -1 -25 9 -9 8 -17 -1 -28 -21 -25 -2 -31 22
-7 17 16 19 24 10 35 -9 10 -9 16 0 25 9 9 8 12 -3 12 -8 0 -20 -5 -27 -12z"/>
<path d="M1312 611 c-14 -46 -15 -51 -4 -51 5 0 13 12 19 28 l10 27 8 -27 c6
-24 25 -40 25 -22 0 24 -25 84 -35 84 -7 0 -17 -17 -23 -39z"/>
<path d="M1402 611 c-14 -46 -15 -51 -4 -51 5 0 13 12 19 28 l10 27 8 -27 c6
-24 25 -40 25 -22 0 24 -25 84 -35 84 -7 0 -17 -17 -23 -39z"/>
<path d="M1480 604 c0 -41 2 -45 15 -34 12 10 19 10 27 2 20 -20 28 -13 17 12
-8 17 -8 29 0 45 11 20 9 21 -24 21 l-35 0 0 -46z m34 21 c-4 -8 -8 -15 -10
-15 -2 0 -4 7 -4 15 0 8 4 15 10 15 5 0 7 -7 4 -15z"/>
<path d="M1570 604 c0 -41 2 -45 15 -34 12 10 19 10 27 2 21 -21 31 -13 15 12
-14 21 -14 26 -1 45 15 20 14 21 -20 21 l-36 0 0 -46z m34 21 c-6 -16 -24 -21
-24 -7 0 11 11 22 21 22 5 0 6 -7 3 -15z"/>
<path d="M1750 605 c0 -50 10 -56 33 -22 l16 22 0 -22 c1 -44 21 -23 21 22 0
50 -10 56 -33 23 l-16 -23 0 23 c-1 43 -21 22 -21 -23z"/>
<path d="M1852 642 c-7 -5 -10 -16 -7 -24 4 -9 1 -19 -5 -23 -13 -8 17 -34 40
-34 12 0 11 3 -3 13 -13 10 -15 16 -7 21 8 5 9 10 1 18 -7 7 -5 14 7 23 14 11
14 13 2 14 -8 0 -21 -4 -28 -8z"/>
<path d="M245 590 c-8 -14 3 -30 21 -30 8 0 14 9 14 20 0 21 -24 28 -35 10z"/>
<path d="M495 590 c-8 -14 3 -30 21 -30 8 0 14 9 14 20 0 21 -24 28 -35 10z"/>
<path d="M895 590 c-8 -14 3 -30 21 -30 8 0 14 9 14 20 0 21 -24 28 -35 10z"/>
<path d="M1040 580 c0 -15 5 -20 18 -18 9 2 17 10 17 18 0 8 -8 16 -17 18 -13
2 -18 -3 -18 -18z"/>
<path d="M1707 594 c-14 -14 -7 -35 11 -32 9 2 17 10 17 17 0 16 -18 25 -28
15z"/>
<path d="M941 352 l-85 -77 -320 -5 -320 -5 -15 -26 c-13 -24 -13 -29 2 -53
l17 -26 815 0 815 0 17 26 c15 24 15 29 2 53 l-15 26 -320 5 -320 5 -91 78
c-50 42 -93 77 -95 77 -2 0 -41 -35 -87 -78z"/>
<path d="M210 53 c4 -36 10 -49 24 -51 10 -2 23 1 29 7 7 7 3 8 -12 4 -19 -5
-21 -1 -21 41 0 31 -4 46 -13 46 -10 0 -11 -12 -7 -47z"/>
<path d="M375 90 c3 -5 8 -10 11 -10 2 0 4 5 4 10 0 6 -5 10 -11 10 -5 0 -7
-4 -4 -10z"/>
<path d="M650 90 c0 -5 5 -10 10 -10 6 0 10 5 10 10 0 6 -4 10 -10 10 -5 0
-10 -4 -10 -10z"/>
<path d="M750 89 c0 -5 5 -7 10 -4 6 3 10 8 10 11 0 2 -4 4 -10 4 -5 0 -10 -5
-10 -11z"/>
<path d="M837 82 c-10 -10 -17 -26 -17 -35 0 -23 28 -47 53 -46 l22 0 -22 9
c-26 10 -32 57 -11 78 7 7 8 12 2 12 -6 0 -18 -8 -27 -18z"/>
<path d="M880 96 c0 -2 7 -6 15 -10 8 -3 15 -1 15 4 0 6 -7 10 -15 10 -8 0
-15 -2 -15 -4z"/>
<path d="M925 50 c0 -27 3 -50 8 -50 4 0 7 11 7 24 0 14 5 28 10 31 6 4 10 -7
10 -24 0 -17 5 -31 10 -31 6 0 10 14 10 31 0 22 -5 32 -20 36 -11 3 -20 12
-20 19 0 8 -3 14 -7 14 -5 0 -8 -22 -8 -50z"/>
<path d="M1224 88 c-5 -8 -2 -9 9 -5 14 5 17 -1 17 -38 0 -25 4 -45 9 -45 6 0
9 11 8 24 -1 14 3 25 8 25 6 0 9 -11 8 -25 -2 -29 3 -31 17 -5 13 26 3 51 -21
51 -10 0 -19 7 -19 15 0 18 -26 20 -36 3z"/>
<path d="M1360 50 c0 -47 2 -50 25 -50 30 0 59 39 48 66 -9 24 -22 34 -50 34
-21 0 -23 -5 -23 -50z m45 0 c0 -18 -6 -35 -12 -37 -9 -3 -13 8 -13 37 0 29 4
40 13 38 6 -3 12 -20 12 -38z"/>
<path d="M1595 50 c0 -33 4 -50 12 -50 7 0 10 7 7 17 -5 16 -3 15 10 -1 19
-24 32 -15 17 12 -7 13 -7 22 1 30 7 7 8 12 4 12 -5 0 -15 -8 -22 -17 -12 -16
-13 -15 -14 15 0 17 -3 32 -7 32 -5 0 -8 -23 -8 -50z"/>
<path d="M1670 50 c0 -27 5 -50 10 -50 6 0 10 8 10 17 0 15 2 14 14 -3 19 -25
32 -11 14 15 -8 12 -18 18 -21 14 -4 -3 -7 8 -7 25 0 18 -4 32 -10 32 -5 0
-10 -22 -10 -50z"/>
<path d="M1810 50 c0 -27 5 -50 10 -50 6 0 10 23 10 50 0 28 -4 50 -10 50 -5
0 -10 -22 -10 -50z"/>
<path d="M1850 90 c0 -5 5 -10 10 -10 6 0 10 5 10 10 0 6 -4 10 -10 10 -5 0
-10 -4 -10 -10z"/>
<path d="M694 79 c-10 -16 -6 -60 6 -72 4 -5 10 8 12 27 5 42 -5 66 -18 45z"/>
<path d="M300 35 c0 -19 5 -35 10 -35 6 0 10 13 10 30 0 17 5 30 11 30 7 0 10
-12 7 -30 -3 -17 -1 -30 4 -30 4 0 8 16 8 35 0 31 -3 35 -25 35 -22 0 -25 -4
-25 -35z"/>
<path d="M370 35 c0 -19 5 -35 10 -35 6 0 10 16 10 35 0 19 -4 35 -10 35 -5 0
-10 -16 -10 -35z"/>
<path d="M410 66 c0 -1 5 -18 11 -35 8 -22 14 -29 19 -20 9 13 -8 59 -22 59
-4 0 -8 -2 -8 -4z"/>
<path d="M481 52 c-10 -20 3 -52 21 -52 9 0 9 3 0 12 -15 15 -16 48 -2 48 6 0
10 -4 10 -10 0 -5 4 -10 10 -10 5 0 7 7 4 15 -8 20 -31 19 -43 -3z"/>
<path d="M540 35 c0 -19 5 -35 10 -35 6 0 10 16 10 35 0 19 -4 35 -10 35 -5 0
-10 -16 -10 -35z"/>
<path d="M570 60 c0 -6 4 -9 9 -6 5 3 16 -5 25 -18 12 -18 12 -26 3 -29 -7 -3
-5 -6 5 -6 26 -1 31 17 11 42 -19 24 -53 35 -53 17z"/>
<path d="M650 35 c0 -19 5 -35 10 -35 6 0 10 16 10 35 0 19 -4 35 -10 35 -5 0
-10 -16 -10 -35z"/>
<path d="M736 58 c-12 -26 -3 -52 19 -57 15 -3 17 0 8 10 -6 8 -13 25 -15 39
-4 21 -6 22 -12 8z"/>
<path d="M760 56 c0 -9 5 -16 10 -16 6 0 10 4 10 9 0 6 -4 13 -10 16 -5 3 -10
-1 -10 -9z"/>
<path d="M996 54 c-8 -22 12 -56 32 -52 20 4 29 45 13 61 -8 8 -11 2 -11 -21
0 -18 -5 -32 -11 -32 -7 0 -10 12 -7 30 5 32 -6 41 -16 14z"/>
<path d="M1070 37 c0 -33 3 -37 25 -37 22 0 25 4 25 35 0 44 -20 46 -21 3 -2
-28 -2 -29 -6 -8 -8 43 -23 47 -23 7z"/>
<path d="M1148 63 c-10 -18 -7 -63 3 -63 7 0 9 11 7 25 -3 14 -1 28 3 31 5 3
9 -9 9 -25 0 -17 5 -31 11 -31 18 0 6 64 -13 68 -9 2 -18 -1 -20 -5z"/>
<path d="M1210 35 c0 -19 5 -35 10 -35 6 0 10 16 10 35 0 19 -4 35 -10 35 -5
0 -10 -16 -10 -35z"/>
<path d="M1456 58 c-12 -27 -3 -53 19 -53 24 0 34 41 14 59 -9 8 -11 7 -6 -6
4 -10 3 -26 -1 -35 -5 -14 -8 -9 -13 17 -4 26 -7 31 -13 18z"/>
<path d="M1522 38 c2 -25 8 -34 26 -36 19 -3 22 1 22 32 0 20 -4 36 -9 36 -5
0 -8 -11 -6 -25 1 -14 -2 -28 -6 -31 -5 -3 -9 9 -9 25 0 17 -5 31 -11 31 -6 0
-9 -14 -7 -32z"/>
<path d="M1750 70 c-7 -26 -7 -61 1 -65 5 -4 9 2 9 11 0 16 1 16 15 -2 13 -18
14 -17 15 19 0 36 -19 55 -21 20 0 -15 -2 -15 -9 2 -5 11 -9 18 -10 15z"/>
<path d="M1850 35 c0 -19 5 -35 10 -35 6 0 10 16 10 35 0 19 -4 35 -10 35 -5
0 -10 -16 -10 -35z"/>
</g>
</svg>
