<?xml version="1.0" standalone="no"?>
<!DOCTYPE svg PUBLIC "-//W3C//DTD SVG 20010904//EN"
 "http://www.w3.org/TR/2001/REC-SVG-20010904/DTD/svg10.dtd">
<svg version="1.0" xmlns="http://www.w3.org/2000/svg"
 width="269.000000pt" height="90.000000pt" viewBox="0 0 269.000000 90.000000"
 preserveAspectRatio="xMidYMid meet">

<g transform="translate(0.000000,90.000000) scale(0.100000,-0.100000)"
fill="#000000" stroke="none">
<path d="M2378 733 c7 -3 16 -2 19 1 4 3 -2 6 -13 5 -11 0 -14 -3 -6 -6z"/>
<path d="M1252 690 c0 -14 2 -19 5 -12 2 6 2 18 0 25 -3 6 -5 1 -5 -13z"/>
<path d="M1222 680 c0 -14 2 -19 5 -12 2 6 2 18 0 25 -3 6 -5 1 -5 -13z"/>
<path d="M1282 675 c0 -16 2 -22 5 -12 2 9 2 23 0 30 -3 6 -5 -1 -5 -18z"/>
<path d="M1381 674 c-1 -31 -22 -60 -34 -47 -4 3 -7 1 -7 -5 0 -13 26 -16 34
-4 2 4 29 7 59 5 35 -1 61 3 73 12 18 14 18 14 -3 15 -26 0 -31 16 -8 23 11 4
10 4 -2 3 -11 -1 -18 -9 -18 -21 0 -15 -8 -19 -38 -20 -33 -2 -38 2 -43 24
-10 44 -12 47 -13 15z"/>
<path d="M1756 676 c4 -24 0 -34 -18 -48 -13 -10 -18 -18 -11 -18 6 0 14 4 17
9 3 5 29 7 59 4 62 -5 148 23 112 38 -29 11 -55 11 -55 -2 0 -5 5 -7 10 -4 6
3 10 2 10 -4 0 -19 -42 -24 -52 -6 -9 15 -11 15 -29 -1 -18 -16 -19 -15 -27 7
-18 47 -22 54 -16 25z"/>
<path d="M2379 683 c-1 -10 -1 -21 0 -25 0 -5 -3 -8 -9 -8 -5 0 -10 -5 -10
-11 0 -6 7 -9 15 -6 8 4 17 2 21 -4 3 -6 34 -9 70 -7 54 2 64 5 64 20 0 22
-16 24 -24 3 -9 -23 -35 -19 -29 5 4 16 0 20 -21 20 -19 0 -26 -5 -26 -20 0
-11 -4 -20 -10 -20 -13 0 -32 38 -25 50 3 5 1 11 -5 15 -5 3 -11 -2 -11 -12z"/>
<path d="M980 671 c0 -12 6 -21 13 -21 6 0 4 -5 -6 -11 -9 -5 -22 -7 -27 -4
-6 3 -10 1 -10 -5 0 -6 12 -10 28 -8 22 2 27 8 27 32 0 16 -6 31 -12 34 -8 2
-13 -5 -13 -17z"/>
<path d="M1183 670 c3 -11 1 -18 -4 -14 -5 3 -9 -2 -9 -10 0 -10 6 -13 15 -10
8 4 15 1 15 -5 0 -6 14 -10 32 -8 24 2 34 8 36 22 4 20 4 20 -12 0 -10 -13
-15 -15 -16 -6 0 10 -3 11 -13 2 -17 -14 -27 -4 -27 26 0 13 -5 23 -11 23 -6
0 -9 -9 -6 -20z"/>
<path d="M2161 668 c-1 -16 -10 -33 -23 -42 -16 -12 -18 -16 -7 -16 9 0 19 3
22 7 4 3 37 7 75 8 94 3 92 3 92 23 0 11 -3 13 -8 5 -4 -7 -36 -14 -70 -16
l-62 -5 -9 32 c-9 30 -9 31 -10 4z"/>
<path d="M920 671 c0 -5 -8 -12 -18 -15 -9 -3 -22 -16 -27 -28 -7 -16 -18 -23
-38 -23 -15 1 -26 -4 -24 -10 8 -22 39 -15 66 14 16 17 34 31 40 31 6 0 11 9
11 20 0 11 -2 20 -5 20 -3 0 -5 -4 -5 -9z"/>
<path d="M2087 673 c-12 -11 -8 -43 6 -43 6 0 3 -7 -8 -16 -11 -8 -28 -13 -37
-10 -10 2 -18 0 -18 -4 0 -17 19 -20 44 -9 27 13 44 41 27 47 -15 5 -14 29 2
35 6 3 7 6 1 6 -6 1 -14 -2 -17 -6z"/>
<path d="M1068 663 c12 -2 32 -2 45 0 12 2 2 4 -23 4 -25 0 -35 -2 -22 -4z"/>
<path d="M2580 659 c0 -5 5 -7 10 -4 6 3 10 2 10 -3 0 -6 -7 -13 -16 -16 -22
-8 -22 -8 -27 12 -4 13 -5 11 -6 -5 -1 -29 21 -30 73 -4 l38 18 -32 7 c-44 8
-50 8 -50 -5z"/>
<path d="M1661 646 c-1 -12 -6 -16 -16 -12 -10 4 -15 -1 -15 -14 0 -23 -35
-44 -57 -36 -13 5 -14 4 -3 -9 18 -22 27 -19 66 20 21 22 34 42 31 53 -4 15
-5 15 -6 -2z"/>
<path d="M1960 650 c0 -6 -10 -15 -22 -20 -21 -9 -20 -9 7 -7 31 2 48 15 39
29 -7 11 -24 10 -24 -2z"/>
<path d="M309 611 c-38 -39 -39 -87 -3 -130 14 -17 30 -29 35 -26 5 4 6 -1 3
-9 -8 -20 -13 -20 -35 0 -24 22 -53 11 -44 -16 5 -15 3 -18 -9 -14 -10 4 -16
1 -16 -9 0 -8 -7 -20 -15 -27 -21 -18 -19 -29 5 -23 11 3 20 11 20 18 0 7 8
12 18 11 13 -1 17 6 15 27 -2 31 3 33 29 11 14 -13 21 -14 32 -5 8 7 19 10 24
7 27 -17 42 104 17 138 -20 27 -35 11 -35 -39 0 -52 -13 -64 -34 -33 -22 31
-20 70 5 102 22 28 59 35 59 11 0 -8 9 -24 20 -35 14 -14 20 -34 20 -62 l1
-43 19 24 c27 32 26 82 -3 109 -13 12 -31 22 -40 22 -9 0 -17 5 -17 10 0 21
-43 9 -71 -19z m71 -149 c-7 -12 -9 -2 -9 38 1 55 1 55 10 17 6 -24 5 -45 -1
-55z"/>
<path d="M2208 583 c7 -3 16 -2 19 1 4 3 -2 6 -13 5 -11 0 -14 -3 -6 -6z"/>
<path d="M65 559 c4 -5 34 -9 68 -8 91 3 107 1 107 -16 0 -12 -15 -15 -67 -16
-38 -1 -77 -1 -88 0 -14 0 -16 -1 -5 -6 8 -3 18 -11 22 -17 5 -8 8 -7 8 2 0 8
20 12 64 12 71 0 99 17 76 45 -15 18 -196 23 -185 4z"/>
<path d="M506 554 c-12 -30 13 -44 79 -44 41 0 65 -4 68 -12 4 -10 6 -10 6 0
1 6 11 13 24 14 12 1 -18 4 -68 7 -74 5 -90 9 -93 23 -3 15 8 18 85 21 l88 3
-91 2 c-77 2 -93 -1 -98 -14z"/>
<path d="M2078 553 c7 -3 16 -2 19 1 4 3 -2 6 -13 5 -11 0 -14 -3 -6 -6z"/>
<path d="M540 542 c0 -5 32 -10 70 -10 40 -1 70 3 70 8 0 6 -31 10 -70 10 -38
0 -70 -4 -70 -8z"/>
<path d="M113 533 c20 -2 54 -2 75 0 20 2 3 4 -38 4 -41 0 -58 -2 -37 -4z"/>
<path d="M463 421 c-10 -16 -9 -20 3 -25 9 -3 16 -6 17 -6 1 0 3 11 3 25 2 30
-7 32 -23 6z"/>
<path d="M400 420 c0 -5 10 -10 23 -10 18 0 19 2 7 10 -19 13 -30 13 -30 0z"/>
<path d="M96 288 c4 -62 8 -115 10 -117 2 -2 4 48 4 112 0 75 -4 117 -11 117
-7 0 -8 -36 -3 -112z"/>
<path d="M660 273 c0 -69 2 -124 4 -122 2 2 7 59 11 127 5 85 4 122 -4 122 -7
0 -11 -42 -11 -127z"/>
<path d="M505 380 c3 -5 8 -10 11 -10 2 0 4 5 4 10 0 6 -5 10 -11 10 -5 0 -7
-4 -4 -10z"/>
<path d="M360 332 c0 -33 -43 -72 -80 -72 -16 0 -30 -4 -30 -9 0 -4 22 -6 49
-3 59 5 91 -10 91 -43 0 -16 6 -25 15 -25 8 0 15 -7 15 -15 0 -13 -3 -13 -20
-3 -11 7 -21 16 -21 20 -1 5 -2 13 -3 20 -2 20 -23 19 -29 -2 -3 -11 -1 -18 3
-15 16 10 21 -14 8 -35 -7 -11 -20 -18 -28 -15 -23 7 -43 -30 -25 -45 15 -12
39 -5 30 10 -3 4 6 11 20 14 17 4 25 13 25 29 0 18 2 19 10 7 5 -8 17 -15 27
-15 10 -1 17 -6 16 -12 -1 -6 4 -17 12 -23 38 -31 5 80 -34 114 -22 20 -29 56
-11 56 6 0 10 7 10 16 0 8 5 12 10 9 6 -3 10 -3 10 0 0 11 -28 35 -41 35 -9 0
-9 3 1 14 9 12 8 15 -9 13 -15 -1 -21 -8 -21 -25z m40 -26 c0 -3 -4 -8 -10
-11 -5 -3 -10 -1 -10 4 0 6 5 11 10 11 6 0 10 -2 10 -4z"/>
<path d="M322 343 c-6 -3 -10 -9 -7 -14 4 -5 -2 -6 -11 -2 -13 5 -16 3 -11
-10 4 -10 2 -16 -5 -14 -6 1 -13 -4 -15 -11 -4 -11 2 -10 25 2 37 19 58 61 24
49z"/>
<path d="M430 338 c0 -19 40 -75 65 -92 30 -20 35 -20 35 -1 0 8 -6 15 -13 15
-20 0 -50 37 -44 53 3 9 -4 19 -19 26 -17 8 -24 8 -24 -1z"/>
<path d="M490 302 c0 -5 7 -15 15 -22 8 -7 15 -8 15 -2 0 5 -7 15 -15 22 -8 7
-15 8 -15 2z"/>
<path d="M443 225 c0 -8 13 -19 29 -24 23 -8 28 -15 23 -31 -4 -14 -2 -20 8
-20 8 0 17 10 20 21 4 16 -1 28 -20 43 -33 25 -60 30 -60 11z"/>
<path d="M1225 229 c-4 -6 -4 -13 -1 -16 3 -4 6 -1 6 5 0 6 8 13 18 15 15 4
15 5 0 6 -9 0 -20 -4 -23 -10z"/>
<path d="M1411 203 c1 -34 2 -35 9 -13 11 36 11 50 0 50 -5 0 -10 -17 -9 -37z"/>
<path d="M1456 232 c-3 -5 -1 -22 4 -38 8 -29 8 -29 9 9 1 36 -3 45 -13 29z"/>
<path d="M1543 205 c0 -22 2 -30 4 -17 2 12 2 30 0 40 -3 9 -5 -1 -4 -23z"/>
<path d="M1854 226 c-10 -26 0 -51 21 -51 16 0 20 7 20 30 0 33 -30 49 -41 21z
m36 -6 c0 -5 -7 -10 -15 -10 -8 0 -15 5 -15 10 0 6 7 10 15 10 8 0 15 -4 15
-10z m0 -30 c0 -5 -7 -10 -15 -10 -8 0 -15 5 -15 10 0 6 7 10 15 10 8 0 15 -4
15 -10z"/>
<path d="M2051 208 c-6 -17 -9 -33 -7 -36 3 -2 8 7 12 22 3 14 10 23 15 20 5
-3 9 -1 9 5 0 25 -19 18 -29 -11z"/>
<path d="M2193 205 c0 -22 2 -30 4 -17 2 12 2 30 0 40 -3 9 -5 -1 -4 -23z"/>
<path d="M2293 205 c0 -22 2 -30 4 -17 2 12 2 30 0 40 -3 9 -5 -1 -4 -23z"/>
<path d="M2501 203 c0 -21 3 -31 6 -23 3 8 11 18 17 22 8 5 7 8 -1 8 -19 0
-16 18 5 23 13 4 11 5 -5 6 -20 1 -23 -4 -22 -36z"/>
<path d="M268 223 c-21 -5 -22 -20 -8 -59 8 -20 14 -24 22 -16 9 9 7 16 -5 30
-15 16 -15 19 3 30 12 7 20 8 20 2 0 -15 17 -12 24 5 5 15 -17 18 -56 8z"/>
<path d="M1122 200 c0 -19 2 -27 5 -17 2 9 2 25 0 35 -3 9 -5 1 -5 -18z"/>
<path d="M1325 220 c-16 -7 -17 -9 -3 -9 9 -1 20 4 23 9 7 11 7 11 -20 0z"/>
<path d="M1802 200 c0 -19 2 -27 5 -17 2 9 2 25 0 35 -3 9 -5 1 -5 -18z"/>
<path d="M832 195 c0 -16 2 -22 5 -12 2 9 2 23 0 30 -3 6 -5 -1 -5 -18z"/>
<path d="M858 193 c5 -21 7 -23 10 -9 2 10 0 22 -6 28 -6 6 -7 0 -4 -19z"/>
<path d="M964 205 c-7 -17 3 -35 19 -34 9 0 9 2 0 6 -7 2 -13 11 -13 18 0 7 6
16 13 18 9 4 9 6 -1 6 -7 1 -15 -6 -18 -14z"/>
<path d="M1010 195 c0 -14 2 -25 4 -25 2 0 6 11 8 25 3 14 1 25 -3 25 -5 0 -9
-11 -9 -25z"/>
<path d="M1151 203 c0 -11 3 -13 6 -5 2 6 10 9 15 6 7 -4 8 -2 4 4 -11 18 -26
14 -25 -5z"/>
<path d="M1282 195 c0 -16 2 -22 5 -12 2 9 2 23 0 30 -3 6 -5 -1 -5 -18z"/>
<path d="M1362 195 c0 -16 2 -22 5 -12 2 9 2 23 0 30 -3 6 -5 -1 -5 -18z"/>
<path d="M1498 213 c7 -3 16 -2 19 1 4 3 -2 6 -13 5 -11 0 -14 -3 -6 -6z"/>
<path d="M1568 193 c5 -21 7 -23 10 -9 2 10 0 22 -6 28 -6 6 -7 0 -4 -19z"/>
<path d="M1606 213 c7 -4 14 -17 17 -28 5 -16 5 -15 4 4 -1 14 -9 26 -17 28
-10 3 -11 2 -4 -4z"/>
<path d="M1668 195 c2 -14 6 -25 8 -25 2 0 4 11 4 25 0 14 -4 25 -9 25 -4 0
-6 -11 -3 -25z"/>
<path d="M1698 193 c5 -21 7 -23 10 -9 2 10 0 22 -6 28 -6 6 -7 0 -4 -19z"/>
<path d="M1724 205 c-7 -17 3 -35 19 -34 9 0 9 2 0 6 -7 2 -13 12 -13 20 0 10
6 13 16 9 8 -3 12 -2 9 4 -9 15 -25 12 -31 -5z"/>
<path d="M1773 204 c-3 -8 -2 -19 3 -24 5 -5 9 1 9 16 0 28 -3 30 -12 8z"/>
<path d="M1920 216 c0 -2 7 -7 16 -10 8 -3 12 -2 9 4 -6 10 -25 14 -25 6z"/>
<path d="M2137 200 c5 -19 3 -22 -10 -17 -10 4 -17 2 -17 -3 0 -6 7 -10 15
-10 20 0 31 28 17 42 -8 8 -9 4 -5 -12z"/>
<path d="M2163 204 c-3 -8 -2 -19 3 -24 5 -5 9 1 9 16 0 28 -3 30 -12 8z"/>
<path d="M2220 216 c0 -2 7 -7 16 -10 8 -3 12 -2 9 4 -6 10 -25 14 -25 6z"/>
<path d="M2326 213 c7 -4 14 -17 17 -28 5 -16 5 -15 4 4 -1 14 -9 26 -17 28
-10 3 -11 2 -4 -4z"/>
<path d="M2554 205 c-7 -17 3 -35 19 -34 9 0 9 2 0 6 -7 2 -13 12 -13 20 0 10
6 13 16 9 8 -3 12 -2 9 4 -9 15 -25 12 -31 -5z"/>
<path d="M911 205 c0 -5 3 -16 8 -23 7 -11 9 -10 14 3 4 9 3 14 -2 10 -5 -3
-12 1 -14 7 -3 7 -6 9 -6 3z"/>
<path d="M1040 206 c0 -3 9 -10 20 -16 11 -6 20 -8 20 -6 0 3 -9 10 -20 16
-11 6 -20 8 -20 6z"/>
<path d="M1250 203 c19 -9 10 -25 -11 -20 -16 4 -19 3 -11 -5 13 -13 45 -2 40
14 -2 6 -10 13 -16 14 -7 1 -8 0 -2 -3z"/>
<path d="M1641 194 c0 -11 3 -14 6 -6 3 7 2 16 -1 19 -3 4 -6 -2 -5 -13z"/>
<path d="M2600 206 c0 -3 9 -10 20 -16 11 -6 20 -8 20 -6 0 3 -9 10 -20 16
-11 6 -20 8 -20 6z"/>
<path d="M1340 192 c0 -6 -8 -13 -17 -15 -16 -4 -16 -5 -1 -6 18 -1 34 16 24
26 -3 4 -6 1 -6 -5z"/>
<path d="M1430 190 c0 -5 5 -10 10 -10 6 0 10 5 10 10 0 6 -4 10 -10 10 -5 0
-10 -4 -10 -10z"/>
<path d="M2075 190 c3 -5 8 -10 11 -10 2 0 4 5 4 10 0 6 -5 10 -11 10 -5 0 -7
-4 -4 -10z"/>
<path d="M780 176 c7 -7 13 -7 20 0 6 6 3 10 -10 10 -13 0 -16 -4 -10 -10z"/>
<path d="M1158 173 c7 -3 16 -2 19 1 4 3 -2 6 -13 5 -11 0 -14 -3 -6 -6z"/>
<path d="M1498 173 c7 -3 16 -2 19 1 4 3 -2 6 -13 5 -11 0 -14 -3 -6 -6z"/>
<path d="M1928 173 c7 -3 16 -2 19 1 4 3 -2 6 -13 5 -11 0 -14 -3 -6 -6z"/>
<path d="M2228 173 c7 -3 16 -2 19 1 4 3 -2 6 -13 5 -11 0 -14 -3 -6 -6z"/>
<path d="M112 90 c0 -19 2 -27 5 -17 2 9 2 25 0 35 -3 9 -5 1 -5 -18z"/>
<path d="M651 74 c0 -11 3 -14 6 -6 3 7 2 16 -1 19 -3 4 -6 -2 -5 -13z"/>
</g>
</svg>
