<?xml version="1.0" standalone="no"?>
<!DOCTYPE svg PUBLIC "-//W3C//DTD SVG 20010904//EN"
 "http://www.w3.org/TR/2001/REC-SVG-20010904/DTD/svg10.dtd">
<svg version="1.0" xmlns="http://www.w3.org/2000/svg"
 width="345.000000pt" height="107.000000pt" viewBox="0 0 345.000000 107.000000"
 preserveAspectRatio="xMidYMid meet">

<g transform="translate(0.000000,107.000000) scale(0.100000,-0.100000)"
fill="#000000" stroke="none">
<path d="M300 995 l0 -54 -57 -4 -58 -3 63 -2 62 -2 0 60 c0 33 -2 60 -5 60
-3 0 -5 -25 -5 -55z"/>
<path d="M508 1018 c-15 -15 -16 -18 -3 -18 9 0 18 7 22 15 8 23 0 24 -19 3z"/>
<path d="M580 1005 c0 -15 -6 -25 -15 -25 -10 0 -15 -15 -17 -57 l-3 -58 -47
-3 -47 -3 -3 -57 c-3 -54 -5 -57 -30 -60 -24 -3 -28 -8 -28 -33 0 -30 0 -30
-52 -27 -52 3 -53 3 -53 36 0 31 -1 32 -42 32 l-43 0 0 -309 0 -309 65 -7 c36
-4 107 -5 158 -3 76 4 104 10 166 37 83 37 179 49 274 33 46 -7 57 -6 57 5 0
10 -20 13 -86 13 l-85 0 0 208 c-1 114 -1 225 -1 247 -1 76 75 178 143 192 24
4 29 10 29 34 0 17 -5 29 -12 29 -23 0 -120 -50 -169 -86 -114 -84 -305 -372
-412 -623 -43 -99 -41 -66 2 55 151 423 284 624 474 721 45 22 49 27 32 34
-11 4 -73 8 -137 8 l-118 1 0 -25z m40 -120 c0 -20 -5 -25 -25 -25 -20 0 -25
5 -25 25 0 20 5 25 25 25 20 0 25 -5 25 -25z m-60 -85 c0 -24 -26 -38 -42 -22
-16 16 -2 42 22 42 13 0 20 -7 20 -20z m-40 -65 c0 -8 -9 -15 -20 -15 -20 0
-26 11 -13 23 12 13 33 7 33 -8z m-60 -40 c0 -8 -4 -15 -10 -15 -5 0 -10 7
-10 15 0 8 5 15 10 15 6 0 10 -7 10 -15z"/>
<path d="M408 983 c-3 -33 -7 -39 -33 -44 -29 -6 -29 -7 8 -8 l37 -1 0 45 c0
55 -8 59 -12 8z"/>
<path d="M510 948 c0 -34 -3 -37 -32 -41 -27 -4 -25 -4 7 -3 36 1 40 4 43 30
2 16 -1 33 -7 39 -8 8 -11 1 -11 -25z"/>
<path d="M370 891 c0 -12 -8 -21 -22 -24 -20 -4 -19 -4 5 -6 23 -1 27 3 27 24
0 14 -2 25 -5 25 -3 0 -5 -9 -5 -19z"/>
<path d="M290 846 c0 -33 -2 -35 -37 -39 -33 -4 -32 -4 7 -3 45 1 45 1 48 39
2 21 -1 37 -7 37 -6 0 -11 -15 -11 -34z"/>
<path d="M426 855 c-3 -8 -1 -15 4 -15 6 0 10 7 10 15 0 8 -2 15 -4 15 -2 0
-6 -7 -10 -15z"/>
<path d="M372 805 c-11 -12 -10 -15 3 -15 8 0 15 7 15 15 0 18 -2 18 -18 0z"/>
<path d="M360 731 c0 -12 -8 -21 -22 -24 -20 -4 -19 -4 5 -6 23 -1 27 3 27 24
0 14 -2 25 -5 25 -3 0 -5 -9 -5 -19z"/>
<path d="M2266 742 c-2 -4 -1 -14 5 -22 12 -20 11 -40 -1 -40 -5 0 -10 7 -10
15 0 8 -11 22 -24 30 -19 13 -29 14 -45 5 -29 -15 -26 -21 8 -14 22 5 32 1 45
-17 9 -13 16 -34 16 -46 0 -19 -5 -23 -33 -23 -18 0 -37 3 -43 8 -5 4 -1 -1 9
-10 11 -10 25 -18 32 -18 7 0 20 -11 29 -25 23 -35 59 -33 90 8 22 28 28 30
45 20 21 -13 31 -8 31 18 0 22 -29 33 -36 14 -8 -21 -22 -19 -29 5 -8 25 -31
26 -39 3 -5 -11 -1 -22 10 -30 16 -12 16 -14 -1 -33 -20 -22 -33 -24 -54 -11
-12 8 -11 15 3 50 18 45 21 106 7 116 -5 3 -12 2 -15 -3z"/>
<path d="M2716 743 c-3 -3 -6 -17 -6 -29 0 -14 -9 -28 -22 -35 -13 -6 -33 -21
-45 -32 l-22 -20 -11 27 c-5 15 -10 41 -10 59 0 22 -3 28 -11 20 -7 -7 -7 -24
2 -56 6 -26 8 -54 5 -63 -5 -13 -3 -14 6 -7 19 15 178 17 178 2 0 -8 4 -8 15
1 10 8 37 11 80 8 l65 -4 0 64 c0 41 -4 62 -11 60 -12 -4 -12 -8 -3 -56 7 -36
-6 -59 -27 -46 -16 10 -61 10 -76 1 -15 -10 -20 -1 -28 56 -4 26 -11 47 -16
47 -11 0 -11 -2 0 -58 11 -53 -2 -62 -36 -26 -22 24 -24 32 -15 56 10 26 3 45
-12 31z m12 -102 c4 -12 -11 -14 -45 -5 -13 4 -21 10 -18 14 8 12 58 5 63 -9z"/>
<path d="M1617 732 c-5 -7 -3 -28 3 -48 7 -19 10 -46 8 -59 -4 -20 -2 -22 13
-12 13 8 21 7 34 -3 12 -10 19 -10 27 -2 16 16 98 16 98 0 0 -9 3 -9 12 0 7 7
31 12 55 12 36 0 43 3 43 19 0 21 -17 37 -28 26 -3 -3 0 -11 8 -16 12 -8 9 -9
-10 -7 -14 1 -30 -1 -37 -5 -15 -10 -19 -2 -27 56 -4 26 -12 47 -17 47 -10 0
-7 -32 7 -82 6 -22 -11 -31 -34 -19 -13 7 -22 7 -30 -1 -9 -9 -17 -7 -33 8
-20 18 -21 18 -35 -1 -19 -26 -31 -11 -41 50 -5 31 -12 45 -16 37z m83 -102
c0 -5 -5 -10 -11 -10 -5 0 -7 5 -4 10 3 6 8 10 11 10 2 0 4 -4 4 -10z"/>
<path d="M2963 676 c1 -35 5 -59 9 -53 11 17 10 117 -1 117 -6 0 -9 -29 -8
-64z"/>
<path d="M3266 731 c-4 -5 -2 -21 4 -36 5 -14 10 -38 10 -53 0 -27 1 -27 70
-27 49 0 70 4 70 13 0 6 -5 12 -12 12 -6 0 -22 10 -34 21 -23 21 -62 20 -49
-1 4 -6 10 -8 14 -6 4 3 13 1 20 -4 10 -5 4 -10 -19 -15 -42 -9 -59 18 -51 82
2 15 -16 26 -23 14z"/>
<path d="M3040 721 c0 -5 9 -7 20 -4 11 3 20 7 20 9 0 2 -9 4 -20 4 -11 0 -20
-4 -20 -9z"/>
<path d="M3074 692 c5 -14 1 -21 -14 -25 -22 -6 -27 -32 -8 -43 7 -4 43 -7 80
-6 37 2 77 -2 88 -8 16 -9 22 -8 26 5 4 8 1 22 -6 30 -12 14 -15 14 -30 0 -21
-19 -41 -20 -34 -2 3 8 -2 20 -11 27 -12 10 -18 10 -30 0 -8 -7 -15 -19 -15
-26 0 -31 -19 -11 -22 23 -2 20 -9 38 -17 41 -9 3 -11 -1 -7 -16z m10 -53 c-3
-5 -10 -7 -15 -3 -5 3 -7 10 -3 15 3 5 10 7 15 3 5 -3 7 -10 3 -15z"/>
<path d="M1976 664 c-11 -29 -6 -45 20 -69 37 -34 83 -33 116 3 31 33 44 85
19 80 -10 -3 -15 -12 -13 -27 3 -34 -25 -61 -64 -61 -47 0 -69 25 -65 73 3 21
-5 22 -13 1z"/>
<path d="M1540 660 c0 -5 5 -10 10 -10 6 0 10 5 10 10 0 6 -4 10 -10 10 -5 0
-10 -4 -10 -10z"/>
<path d="M2510 660 c0 -5 5 -10 11 -10 5 0 7 5 4 10 -3 6 -8 10 -11 10 -2 0
-4 -4 -4 -10z"/>
<path d="M1577 611 c4 -15 -3 -25 -28 -40 -43 -26 -74 -26 -99 -1 -13 13 -20
15 -20 7 0 -24 24 -37 68 -37 35 0 49 6 74 30 29 29 33 50 11 57 -7 3 -9 -4
-6 -16z"/>
<path d="M2544 615 c3 -9 -3 -24 -14 -35 -29 -29 -69 -36 -102 -17 -15 9 -28
13 -28 9 0 -36 92 -44 134 -11 26 20 37 69 15 69 -6 0 -9 -7 -5 -15z"/>
<path d="M1730 590 c0 -5 5 -10 10 -10 6 0 10 5 10 10 0 6 -4 10 -10 10 -5 0
-10 -4 -10 -10z"/>
<path d="M2035 540 c3 -5 8 -10 11 -10 2 0 4 5 4 10 0 6 -5 10 -11 10 -5 0 -7
-4 -4 -10z"/>
<path d="M2261 456 c-12 -14 -5 -26 16 -26 15 0 18 26 4 34 -5 3 -14 0 -20 -8z"/>
<path d="M1450 441 c0 -12 -5 -21 -12 -21 -9 0 -9 -3 0 -12 7 -7 12 -20 12
-31 0 -10 5 -15 11 -12 6 4 8 13 5 21 -3 7 3 18 12 23 16 10 16 10 -2 11 -12
0 -16 5 -13 15 4 8 2 17 -3 20 -6 4 -10 -3 -10 -14z"/>
<path d="M1577 442 c-22 -24 -21 -45 1 -65 24 -22 45 -21 65 1 21 23 22 46 1
66 -21 21 -47 20 -67 -2z m58 -8 c18 -18 16 -33 -7 -47 -35 -22 -66 21 -36 51
16 16 23 15 43 -4z"/>
<path d="M1600 410 c0 -5 5 -10 10 -10 6 0 10 5 10 10 0 6 -4 10 -10 10 -5 0
-10 -4 -10 -10z"/>
<path d="M1699 414 c-12 -25 -18 -48 -15 -51 3 -3 13 14 23 38 l17 43 20 -44
c10 -25 21 -40 23 -33 4 12 -33 93 -43 93 -3 0 -14 -21 -25 -46z"/>
<path d="M1842 413 l3 -48 40 0 40 0 3 48 c2 28 -1 47 -7 47 -6 0 -11 -18 -11
-40 0 -36 -2 -40 -25 -40 -22 0 -25 4 -25 40 0 22 -5 40 -11 40 -6 0 -9 -19
-7 -47z"/>
<path d="M1967 449 c-14 -8 -15 -14 -7 -24 8 -9 8 -15 0 -20 -17 -10 -12 -21
16 -34 32 -14 44 -7 14 9 -16 9 -19 15 -10 25 8 10 8 15 -1 21 -8 4 -4 11 12
20 14 8 18 13 9 13 -8 0 -23 -4 -33 -10z"/>
<path d="M2040 441 c0 -11 -6 -22 -12 -24 -10 -4 -10 -6 0 -6 6 -1 12 -10 12
-21 0 -27 13 -25 27 5 6 14 7 25 2 25 -5 0 -9 9 -9 20 0 11 -4 20 -10 20 -5 0
-10 -9 -10 -19z"/>
<path d="M2152 448 c-7 -7 -12 -24 -12 -40 0 -50 66 -62 91 -17 23 43 -44 92
-79 57z m61 -20 c17 -26 1 -50 -30 -46 -34 4 -43 36 -17 55 21 15 34 13 47 -9z"/>
<path d="M2175 410 c3 -5 10 -10 16 -10 5 0 9 5 9 10 0 6 -7 10 -16 10 -8 0
-12 -4 -9 -10z"/>
<path d="M2310 415 c0 -48 13 -60 25 -22 7 21 8 21 15 -8 6 -25 8 -21 8 25 1
53 1 54 -13 30 -14 -25 -14 -25 -15 -2 0 12 -4 22 -10 22 -5 0 -10 -20 -10
-45z"/>
<path d="M2380 410 l0 -50 35 0 c19 0 35 5 35 10 0 6 -13 10 -30 10 -16 0 -30
5 -30 11 0 6 6 9 14 6 8 -3 20 1 26 9 13 14 4 19 -29 15 -26 -4 -4 24 25 30
27 6 27 7 -8 8 l-38 1 0 -50z"/>
<path d="M2530 409 c0 -31 4 -48 10 -44 6 3 10 26 10 51 0 24 -4 44 -10 44 -5
0 -10 -23 -10 -51z"/>
<path d="M2600 410 l0 -50 35 0 c19 0 35 5 35 10 0 6 -14 10 -31 10 -28 0 -30
2 -27 32 2 27 8 34 33 39 29 6 29 7 -7 8 l-38 1 0 -50z"/>
<path d="M2695 450 c-4 -7 -3 -16 3 -22 14 -14 45 -2 40 15 -6 16 -34 21 -43
7z m35 -10 c0 -5 -4 -10 -10 -10 -5 0 -10 5 -10 10 0 6 5 10 10 10 6 0 10 -4
10 -10z"/>
<path d="M2750 410 c0 -32 4 -49 10 -45 6 3 10 15 10 26 0 29 18 23 23 -8 2
-16 4 -3 5 27 1 46 -1 51 -10 33 -12 -25 -34 -32 -25 -8 4 8 2 17 -3 20 -6 4
-10 -15 -10 -45z"/>
<path d="M2912 447 c-17 -10 -19 -16 -10 -25 9 -9 8 -16 -5 -30 -26 -29 -20
-38 8 -12 16 15 23 30 19 42 -3 12 0 18 10 18 9 0 16 5 16 10 0 13 -10 12 -38
-3z"/>
<path d="M3016 441 c-22 -25 -13 -58 20 -73 19 -9 28 -8 44 7 25 23 26 61 1
75 -29 15 -46 12 -65 -9z m59 -7 c18 -18 16 -33 -7 -47 -35 -22 -66 21 -36 51
16 16 23 15 43 -4z"/>
<path d="M3040 410 c0 -5 5 -10 10 -10 6 0 10 5 10 10 0 6 -4 10 -10 10 -5 0
-10 -4 -10 -10z"/>
<path d="M3121 410 c0 -54 0 -55 14 -25 12 27 13 28 14 8 1 -13 5 -23 11 -23
5 0 9 20 8 45 -1 48 -11 59 -23 23 l-7 -23 -8 25 c-6 19 -8 13 -9 -30z"/>
<path d="M3207 449 c-14 -8 -15 -14 -7 -24 8 -9 8 -15 0 -20 -18 -11 -11 -23
20 -34 17 -5 30 -6 30 -2 0 5 -10 11 -22 14 -17 5 -19 9 -9 21 9 11 9 16 0 22
-8 4 -4 11 12 20 14 8 18 13 9 13 -8 0 -23 -4 -33 -10z"/>
<path d="M3262 413 c3 -48 3 -48 42 -51 25 -2 36 0 31 7 -3 6 -17 11 -31 11
-21 0 -24 5 -24 34 0 32 3 35 33 39 27 3 26 4 -11 5 l-43 2 3 -47z"/>
<path d="M3410 409 c0 -31 4 -48 10 -44 6 3 10 26 10 51 0 24 -4 44 -10 44 -5
0 -10 -23 -10 -51z"/>
<path d="M1511 396 c-9 -10 -8 -16 4 -26 19 -16 41 1 32 24 -8 20 -21 20 -36
2z m24 -5 c3 -5 1 -12 -5 -16 -5 -3 -10 1 -10 9 0 18 6 21 15 7z"/>
<path d="M1793 394 c-8 -21 13 -42 28 -27 13 13 5 43 -11 43 -6 0 -13 -7 -17
-16z m27 -4 c0 -5 -4 -10 -10 -10 -5 0 -10 5 -10 10 0 6 5 10 10 10 6 0 10 -4
10 -10z"/>
<path d="M2483 394 c-8 -21 13 -42 28 -27 13 13 5 43 -11 43 -6 0 -13 -7 -17
-16z m22 -3 c3 -5 1 -12 -5 -16 -5 -3 -10 1 -10 9 0 18 6 21 15 7z"/>
<path d="M2823 394 c-8 -21 13 -42 28 -27 13 13 5 43 -11 43 -6 0 -13 -7 -17
-16z m27 -4 c0 -5 -4 -10 -10 -10 -5 0 -10 5 -10 10 0 6 5 10 10 10 6 0 10 -4
10 -10z"/>
<path d="M3361 396 c-9 -10 -8 -16 4 -26 19 -16 41 1 32 24 -8 20 -21 20 -36
2z m24 -6 c3 -5 1 -10 -4 -10 -6 0 -11 5 -11 10 0 6 2 10 4 10 3 0 8 -4 11
-10z"/>
<path d="M2254 389 c-10 -17 13 -36 27 -22 12 12 4 33 -11 33 -5 0 -12 -5 -16
-11z"/>
<path d="M2695 390 c-8 -13 3 -30 20 -30 20 0 29 20 15 33 -6 7 -10 8 -8 2 2
-5 -1 -11 -7 -12 -5 -2 -9 2 -7 7 1 6 0 10 -2 10 -3 0 -8 -4 -11 -10z"/>
<path d="M1434 250 c1 -43 2 -45 31 -45 28 0 30 3 32 40 l1 40 -6 -35 c-5 -26
-12 -35 -27 -35 -16 0 -21 9 -26 40 l-7 40 2 -45z"/>
<path d="M2073 273 c-4 -11 1 -22 15 -31 28 -18 28 -29 0 -35 -21 -4 -20 -4 3
-6 38 -2 44 24 11 48 l-27 20 25 10 c25 10 25 10 2 10 -12 1 -26 -7 -29 -16z"/>
<path d="M2220 245 c0 -25 5 -45 10 -45 6 0 10 20 10 45 0 25 -4 45 -10 45 -5
0 -10 -20 -10 -45z"/>
<path d="M2497 284 c-4 -4 -6 -26 -5 -48 1 -41 1 -41 5 -6 l5 35 18 -35 18
-35 16 35 15 35 1 -32 c0 -18 5 -33 10 -33 9 0 4 77 -6 88 -1 2 -10 -11 -20
-29 l-16 -33 -17 32 c-9 18 -20 30 -24 26z"/>
<path d="M2773 245 c0 -27 2 -38 4 -22 2 15 2 37 0 50 -2 12 -4 0 -4 -28z"/>
<path d="M2973 273 c-4 -11 1 -22 15 -31 28 -18 28 -29 0 -35 -21 -4 -20 -4 3
-6 38 -2 44 24 11 48 l-27 20 25 10 c25 10 25 10 2 10 -12 1 -26 -7 -29 -16z"/>
<path d="M3040 245 c0 -25 5 -45 10 -45 6 0 10 20 10 45 0 25 -4 45 -10 45 -5
0 -10 -20 -10 -45z"/>
<path d="M1922 245 c2 -21 9 -40 16 -43 11 -3 11 -1 0 17 -11 18 -11 23 0 30
10 6 10 11 -3 21 -15 12 -16 10 -13 -25z"/>
<path d="M2262 244 c2 -22 9 -39 18 -42 13 -4 13 -3 2 11 -8 9 -11 25 -7 36 3
10 1 22 -5 26 -8 5 -10 -5 -8 -31z"/>
<path d="M1520 229 c0 -17 4 -28 10 -24 6 3 10 15 10 26 0 30 28 23 33 -8 4
-26 4 -26 6 5 1 29 -2 32 -29 32 -27 0 -30 -3 -30 -31z"/>
<path d="M1600 229 c0 -17 4 -28 10 -24 6 3 10 17 10 31 0 13 -4 24 -10 24 -5
0 -10 -14 -10 -31z"/>
<path d="M1641 230 c6 -16 14 -30 18 -30 10 0 33 51 27 58 -3 3 -10 -6 -15
-19 l-10 -24 -7 23 c-3 12 -10 22 -15 22 -4 0 -3 -13 2 -30z"/>
<path d="M1704 245 c-10 -24 4 -45 28 -44 19 1 19 2 5 6 -14 4 -18 12 -14 29
5 26 -10 33 -19 9z"/>
<path d="M1744 251 c4 -5 0 -12 -6 -14 -8 -3 -6 -6 5 -6 9 -1 17 6 17 14 0 8
-5 15 -11 15 -5 0 -8 -4 -5 -9z"/>
<path d="M1781 228 c1 -22 3 -26 6 -13 3 11 10 26 15 33 8 9 6 12 -6 12 -12 0
-16 -9 -15 -32z"/>
<path d="M1825 251 c-3 -6 3 -14 12 -20 16 -9 16 -12 3 -21 -13 -8 -13 -10 2
-10 25 0 34 21 13 32 -14 8 -15 12 -4 19 11 7 11 9 -3 9 -9 0 -19 -4 -23 -9z"/>
<path d="M1880 236 c0 -14 5 -28 10 -31 6 -4 10 7 10 24 0 17 -4 31 -10 31 -5
0 -10 -11 -10 -24z"/>
<path d="M1964 245 c-10 -24 4 -45 28 -44 19 1 19 2 5 6 -14 4 -18 12 -14 29
5 26 -10 33 -19 9z"/>
<path d="M2004 251 c4 -5 0 -12 -6 -14 -8 -3 -6 -6 5 -6 9 -1 17 6 17 14 0 8
-5 15 -11 15 -5 0 -8 -4 -5 -9z"/>
<path d="M2142 233 c2 -22 9 -29 31 -31 25 -3 27 -1 26 30 -1 29 -2 30 -8 9
-9 -34 -31 -39 -31 -7 0 14 -5 26 -11 26 -6 0 -9 -12 -7 -27z"/>
<path d="M2334 252 c3 -6 -3 -14 -14 -17 -29 -9 -20 -29 14 -33 25 -3 27 -1
24 24 -2 15 -9 30 -17 32 -8 3 -11 0 -7 -6z m6 -32 c0 -5 -4 -10 -10 -10 -5 0
-10 5 -10 10 0 6 5 10 10 10 6 0 10 -4 10 -10z"/>
<path d="M2381 228 c2 -30 2 -31 6 -5 5 34 33 36 33 2 0 -14 5 -25 11 -25 6 0
9 12 7 28 -2 21 -9 28 -30 30 -26 3 -28 1 -27 -30z"/>
<path d="M2605 250 c-3 -5 -3 -19 0 -31 10 -31 60 -23 60 11 0 20 -6 26 -27
28 -14 2 -29 -2 -33 -8z m50 -20 c0 -8 -8 -16 -17 -18 -13 -2 -18 3 -18 18 0
15 5 20 18 18 9 -2 17 -10 17 -18z"/>
<path d="M2691 233 c-1 -30 2 -33 29 -33 27 0 30 3 30 30 0 17 -4 30 -10 30
-5 0 -10 -11 -10 -25 0 -34 -28 -32 -33 3 -4 25 -4 25 -6 -5z"/>
<path d="M2834 251 c3 -5 -3 -11 -14 -14 -30 -8 -25 -37 5 -37 21 0 25 5 25
30 0 17 -5 30 -11 30 -5 0 -8 -4 -5 -9z m6 -31 c0 -5 -7 -10 -15 -10 -8 0 -15
5 -15 10 0 6 7 10 15 10 8 0 15 -4 15 -10z"/>
<path d="M2870 252 c0 -7 5 -22 10 -32 7 -13 7 -21 0 -25 -5 -3 -10 -11 -10
-16 0 -19 20 2 40 42 11 21 16 39 11 39 -5 0 -13 -10 -17 -22 l-6 -21 -14 24
c-7 13 -13 18 -14 11z"/>
<path d="M3082 230 c0 -19 2 -27 5 -17 2 9 2 25 0 35 -3 9 -5 1 -5 -18z"/>
<path d="M3110 228 c0 -17 3 -28 7 -24 4 4 8 15 8 24 0 9 7 17 15 17 8 0 15
-8 15 -17 0 -9 4 -20 8 -24 4 -4 7 5 7 19 0 36 27 35 33 0 4 -26 4 -26 6 5 l1
32 -50 0 c-49 0 -50 0 -50 -32z"/>
<path d="M3264 251 c3 -5 -3 -11 -14 -14 -30 -8 -25 -37 5 -37 21 0 25 5 25
30 0 17 -5 30 -11 30 -5 0 -8 -4 -5 -9z m6 -31 c0 -5 -7 -10 -16 -10 -8 0 -12
5 -9 10 3 6 10 10 16 10 5 0 9 -4 9 -10z"/>
<path d="M3300 230 c0 -16 5 -30 10 -30 6 0 10 11 10 25 0 16 6 25 15 25 9 0
15 -10 15 -26 0 -14 4 -23 9 -20 5 4 8 14 6 24 -2 9 -4 20 -4 25 -1 4 -14 7
-31 7 -27 0 -30 -3 -30 -30z"/>
<path d="M3384 245 c-10 -24 4 -45 28 -44 l23 0 -23 9 c-19 8 -21 13 -12 30 8
14 8 20 0 20 -6 0 -13 -7 -16 -15z"/>
<path d="M3424 252 c3 -5 0 -13 -6 -15 -8 -3 -6 -6 5 -6 19 -1 23 14 5 25 -6
4 -8 3 -4 -4z"/>
<path d="M769 115 c-37 -7 -100 -27 -140 -44 -95 -40 -184 -42 -325 -6 -54 14
-100 25 -101 25 -2 0 -3 -16 -3 -35 l0 -35 360 0 360 0 0 55 0 55 -42 -1 c-24
0 -73 -7 -109 -14z"/>
</g>
</svg>
